<svg xmlns="http://www.w3.org/2000/svg" viewBox="0 0 111 81.4"><defs><style>.cls-1{fill:#3b67d2;}</style></defs><title>portfolio</title><g id="Elementos"><path class="cls-1" d="M30.05,15.45,19,28.4a1.82,1.82,0,0,0,0,2.4l11.1,13,2.8-2.4L22.79,29.6,32.85,17.85Z"/><path class="cls-1" d="M56.81,15.34,54.19,18,65.83,29.6,54.19,41.24l2.62,2.62,13-12.95a1.86,1.86,0,0,0,0-2.62h0Z"/><rect class="cls-1" x="28.59" y="27.75" width="31.61" height="3.7" transform="translate(1.1 60.78) rotate(-69.45)"/><path class="cls-1" d="M24.05,72.15h11.1V77.7H29.6v3.7H59.2V77.7H53.65V72.15H59.2V74a1.85,1.85,0,0,0,1.85,1.85h11.1v3.7A1.85,1.85,0,0,0,74,81.4H96.2a1.85,1.85,0,0,0,1.85-1.85v-3.7h11.1A1.85,1.85,0,0,0,111,74V40.7a1.85,1.85,0,0,0-1.85-1.85H88.8v-37A1.85,1.85,0,0,0,87,0H1.85A1.85,1.85,0,0,0,0,1.85v55.5A1.85,1.85,0,0,0,1.85,59.2H13v3.7a1.85,1.85,0,0,0,1.85,1.85h1.85A7.41,7.41,0,0,0,24.05,72.15Zm-7.4-11.1V59.2h3.7v1.85Zm18.5,7.4H24.05a3.7,3.7,0,0,1-3.7-3.7H22.2a1.85,1.85,0,0,0,1.85-1.85V59.2h11.1ZM50,77.7H38.85V59.2h3.7v13a1.85,1.85,0,1,0,3.7,0v-13H50Zm9.25-9.25H53.65V59.2H59.2ZM94.35,77.7H75.85v-.93L82,72.15h6.16l6.17,4.62ZM88.8,57.35V42.55h18.5v29.6h-13l-4.44-3.33a1.85,1.85,0,0,0-1.11-.37H81.4a1.85,1.85,0,0,0-1.11.37l-4.44,3.33H62.9v-13H87A1.85,1.85,0,0,0,88.8,57.35ZM3.7,55.5V3.7H85.1V55.5Z"/></g></svg>