<svg xmlns="http://www.w3.org/2000/svg" viewBox="0 0 114 114"><defs><style>.cls-1{fill:#3b67d2;}</style></defs><title>portfolio</title><g id="Elementos"><path class="cls-1" d="M72.44,114H41.55V88.75H44.1V87.08c0-9.17-1.59-16.39-9.52-24.08l-1.09-1.06L55.86,21.3H46.35V17A32.71,32.71,0,0,0,24.67,43.17h3.27V61.61H9.51V43.17h4.21a43.4,43.4,0,0,1,12.49-26c.4-.4.8-.79,1.21-1.17h-8.9A10.16,10.16,0,1,1,10.17,0a10.11,10.11,0,0,1,8.35,4.38H46.35V0h21.3V4.38H95.48a10.16,10.16,0,1,1,8.35,16A10.11,10.11,0,0,1,95.48,16h-8.9c.41.38.81.77,1.21,1.17a43.4,43.4,0,0,1,12.49,26.05h4.21V61.61H86.06V43.17h3.26A32.72,32.72,0,0,0,67.65,17V21.3H58.14L80.51,61.94,79.42,63c-8,7.79-9.69,15.26-9.69,24.08v1.67h2.71Zm-26.89-4H68.44V92.75H45.55Zm2.53-24.92H65.77C66.1,75.07,69,68,75.55,61.21L57,27.53,38.45,61.22C45.86,68.89,47.84,76.42,48.08,85.08Zm42-27.47h10.43V47.17H96.57l-.12-1.87A39.47,39.47,0,0,0,85,19.94a40.45,40.45,0,0,0-5.17-4.36L74.63,12H97.81L98.37,13a6.17,6.17,0,1,0,0-5.71l-.56,1.07H63.65V4H50.35V8.38H16.19l-.56-1.07a6.17,6.17,0,1,0,0,5.71L16.19,12H39.35L34.2,15.58A40.54,40.54,0,0,0,29,19.94,39.47,39.47,0,0,0,17.55,45.3l-.12,1.87H13.51V57.61H23.94V47.17H20.28L20.44,45A36.71,36.71,0,0,1,47.85,12.39l2.5-.64V17.3h13.3V11.75l2.5.64A36.71,36.71,0,0,1,93.56,45l.17,2.15H90.06ZM57,61.54a6.31,6.31,0,1,1,6.31-6.3A6.31,6.31,0,0,1,57,61.54Zm0-8.62a2.31,2.31,0,1,0,2.31,2.32A2.32,2.32,0,0,0,57,52.92Z"/></g></svg>