<svg id="Fondo" xmlns="http://www.w3.org/2000/svg" viewBox="0 0 722.19 358.78"><title>portfolio</title><path d="M2.38,42c0-1.86,1.22-3.39,3.55-4.57v-.18a4.37,4.37,0,0,1-2.3-3.88,5.66,5.66,0,0,1,2.74-4.29v-.18a7,7,0,0,1-3-5.86c0-5.48,4.61-8.28,9.78-8.28a11.91,11.91,0,0,1,3.75.56h9.28v5H21.54a5.22,5.22,0,0,1,1,3c0,5.25-4.11,7.65-9.41,7.65A11.8,11.8,0,0,1,10,30.5a1.86,1.86,0,0,0-1,1.68c0,1.22,1.21,1.71,3.89,1.71h4.21c6,0,9.28,1.67,9.28,5.78,0,4.75-5.3,8.22-13.62,8.22C6.79,47.89,2.38,46.13,2.38,42Zm17.51-1.21c0-1.45-1.4-1.75-4-1.75H13a14.08,14.08,0,0,1-3.47-.3C8.38,39.5,7.91,40.19,7.91,41c0,1.72,2.23,2.59,5.78,2.59S19.89,42.4,19.89,40.83ZM16.58,23.08a3.45,3.45,0,1,0-6.88,0c0,2.49,1.55,3.79,3.42,3.79S16.58,25.57,16.58,23.08Z"/><path d="M32.91,15.36h5.56l.54,5h.16a10.59,10.59,0,0,1,9.25-5.55,9.24,9.24,0,0,1,4.38.93l-1.37,5.68a11.85,11.85,0,0,0-4-.67c-2.83,0-5.74,1.47-7.71,5.57V38.18H32.91Z"/><path d="M58,31.85c0-5.11,4.22-7.72,15-8.37-.24-2-1.78-3.29-4.84-3.29-2.2,0-4.39.85-7,2.14l-2.41-4.44A21.72,21.72,0,0,1,69.5,14.8c6.41,0,10.3,3.34,10.3,10.33V38.18H74.27l-.49-2.57h-.17a14,14,0,0,1-8.09,3.12C60.9,38.73,58,35.69,58,31.85Zm15-.54V27.57c-6.72.34-8.52,1.79-8.52,3.74,0,1.47,1.24,2.18,3.15,2.18A8.75,8.75,0,0,0,73,31.31Z"/><path d="M85.88,46.64l1.21-5.16a6.28,6.28,0,0,0,1.76.29,4.69,4.69,0,0,0,4.79-3l.45-1.19L84.22,15.36h6.72l3.84,9.8c.81,2.15,1.54,4.46,2.26,6.86h.18c.62-2.29,1.39-4.63,2.1-6.86l3.33-9.8h6.41l-9,23.07c-2.22,5.71-4.93,8.67-10.7,8.67A13.1,13.1,0,0,1,85.88,46.64Z"/><path d="M118.85,18.45a5.35,5.35,0,1,1,10.7,0,5.35,5.35,0,1,1-10.7,0Zm0,14.88a5.35,5.35,0,1,1,10.7,0,5.35,5.35,0,1,1-10.7,0Z"/><path d="M170.91,15.36h5.56l.54,5h.15a10.61,10.61,0,0,1,9.26-5.55,9.24,9.24,0,0,1,4.38.93l-1.37,5.68a11.85,11.85,0,0,0-4-.67c-2.83,0-5.74,1.47-7.71,5.57V38.18h-6.77Z"/><path d="M195.58,42c0-1.86,1.22-3.39,3.55-4.57v-.18a4.37,4.37,0,0,1-2.3-3.88,5.67,5.67,0,0,1,2.73-4.29v-.18a7,7,0,0,1-3-5.86c0-5.48,4.61-8.28,9.78-8.28a11.89,11.89,0,0,1,3.74.56h9.28v5h-4.6a5.22,5.22,0,0,1,1,3c0,5.25-4.12,7.65-9.41,7.65a11.8,11.8,0,0,1-3.14-.46,1.86,1.86,0,0,0-1,1.68c0,1.22,1.2,1.71,3.88,1.71h4.22c6,0,9.28,1.67,9.28,5.78,0,4.75-5.3,8.22-13.62,8.22C200,47.89,195.58,46.13,195.58,42Zm17.51-1.21c0-1.45-1.41-1.75-4-1.75H206.2a14.08,14.08,0,0,1-3.47-.3c-1.16.72-1.63,1.41-1.63,2.23,0,1.72,2.24,2.59,5.79,2.59S213.09,42.4,213.09,40.83Zm-3.31-17.75a3.46,3.46,0,1,0-6.89,0c0,2.49,1.55,3.79,3.43,3.79S209.78,25.57,209.78,23.08Z"/><path d="M230.14,35.7H230l-.56,2.48h-5.3V6h6.78v7.86l-.26,3.59h.18A9.18,9.18,0,0,1,237,14.8c5.7,0,9.2,4.57,9.2,11.57,0,7.87-4.79,12.36-9.88,12.36A8.8,8.8,0,0,1,230.14,35.7Zm9.17-9.22c0-4.09-1.35-6.13-4.22-6.13a5.64,5.64,0,0,0-4.2,2.12v9.2a5.89,5.89,0,0,0,3.93,1.52C237.29,33.19,239.31,31.2,239.31,26.48Z"/><path d="M256.7,25.39a27.4,27.4,0,0,1,9.75-21l3.74,3c-5.47,5.33-7.82,10.76-7.82,18s2.35,12.69,7.82,18l-3.74,3A27.4,27.4,0,0,1,256.7,25.39Z"/><path d="M278.66,34.3c8.37-7,14-12,14-16.19,0-2.83-1.76-4.38-4.82-4.38-2.33,0-4.22,1.43-5.88,3L278.33,13c3-3.07,6-4.63,10.44-4.63,6.15,0,10.33,3.68,10.33,9.31,0,4.93-5.06,10.17-10.73,15.1,1.68-.17,3.8-.33,5.31-.33h6.93v5.69H278.66Z"/><path d="M319.26,21.14c0-1.88.18-4.55.27-6.43h-.2c-1,1.66-2.16,3.32-3.19,5L311.75,26h17.52v5.17H305.19V26.52L317.4,9h8.17V38.18h-6.31Z"/><path d="M333.86,34.3c8.37-7,14-12,14-16.19,0-2.83-1.76-4.38-4.82-4.38-2.33,0-4.22,1.43-5.88,3L333.53,13c3-3.07,6-4.63,10.44-4.63,6.15,0,10.33,3.68,10.33,9.31,0,4.93-5.06,10.17-10.73,15.1,1.68-.17,3.8-.33,5.31-.33h6.93v5.69H333.86Z"/><path d="M367.18,44.23c4.08-1.45,6-3.77,6-6.69l-.23-5.5,2.78,4.63a5,5,0,0,1-8-3.65c0-2.85,2.3-4.73,5.17-4.73,3.74,0,5.7,3,5.7,7.88,0,5.85-3.33,10.06-9.69,12Z"/><path d="M416.66,34.3c8.37-7,14-12,14-16.19,0-2.83-1.76-4.38-4.82-4.38-2.33,0-4.22,1.43-5.88,3L416.33,13c3-3.07,6-4.63,10.43-4.63,6.16,0,10.34,3.68,10.34,9.31,0,4.93-5.06,10.17-10.73,15.1,1.68-.17,3.79-.33,5.31-.33h6.93v5.69H416.66Z"/><path d="M457.26,21.14c0-1.88.17-4.55.27-6.43h-.2c-1,1.66-2.16,3.32-3.19,5L449.75,26h17.51v5.17H443.19V26.52L455.4,9h8.17V38.18h-6.31Z"/><path d="M471.85,34.3c8.38-7,14-12,14-16.19,0-2.83-1.76-4.38-4.82-4.38-2.33,0-4.23,1.43-5.88,3L471.53,13c3-3.07,6-4.63,10.43-4.63,6.16,0,10.34,3.68,10.34,9.31,0,4.93-5.06,10.17-10.73,15.1,1.68-.17,3.79-.33,5.31-.33h6.93v5.69h-22Z"/><path d="M505.18,44.23c4.08-1.45,6-3.77,6-6.69l-.23-5.5,2.78,4.63a5,5,0,0,1-8-3.65c0-2.85,2.3-4.73,5.18-4.73,3.74,0,5.7,3,5.7,7.88,0,5.85-3.34,10.06-9.69,12Z"/><path d="M554.65,34.3c8.38-7,14-12,14-16.19,0-2.83-1.76-4.38-4.82-4.38-2.33,0-4.23,1.43-5.88,3L554.32,13c3-3.07,6-4.63,10.44-4.63,6.16,0,10.33,3.68,10.33,9.31,0,4.93-5.05,10.17-10.72,15.1,1.67-.17,3.79-.33,5.31-.33h6.92v5.69h-22Z"/><path d="M595.26,21.14c0-1.88.17-4.55.26-6.43h-.19c-1,1.66-2.16,3.32-3.19,5L587.74,26h17.52v5.17H581.19V26.52L593.39,9h8.18V38.18h-6.31Z"/><path d="M609.85,34.3c8.38-7,14-12,14-16.19,0-2.83-1.76-4.38-4.82-4.38-2.33,0-4.23,1.43-5.88,3L609.52,13c3-3.07,6-4.63,10.44-4.63,6.15,0,10.33,3.68,10.33,9.31,0,4.93-5,10.17-10.72,15.1,1.67-.17,3.79-.33,5.31-.33h6.92v5.69H609.85Z"/><path d="M640.6,43.42c5.47-5.34,7.82-10.77,7.82-18s-2.35-12.69-7.82-18l3.75-3a27.55,27.55,0,0,1,0,42Z"/><path d="M2.16,82c0-7.47,4.8-12,9.76-12a7.53,7.53,0,0,1,5.75,2.46h.16l-.32-3.53V61.16h6.78V93.38H18.77L18.28,91h-.17a9.47,9.47,0,0,1-6.32,2.9C6,93.93,2.16,89.43,2.16,82Zm15.35,4.29V77.06a5.36,5.36,0,0,0-3.81-1.51c-2.47,0-4.61,2-4.61,6.35s1.66,6.49,4.42,6.49A4.7,4.7,0,0,0,17.51,86.27Z"/><path d="M30.42,87.05c0-5.11,4.22-7.72,15-8.37-.24-2-1.78-3.29-4.84-3.29-2.2,0-4.39.85-7,2.14l-2.41-4.44A21.72,21.72,0,0,1,41.9,70c6.41,0,10.3,3.34,10.3,10.33v13H46.67l-.49-2.57H46a14,14,0,0,1-8.09,3.12C33.3,93.93,30.42,90.89,30.42,87.05Zm15-.54V82.77c-6.72.34-8.52,1.79-8.52,3.74,0,1.47,1.24,2.18,3.15,2.18A8.75,8.75,0,0,0,45.43,86.51Z"/><path d="M60.51,70.56h5.56l.54,5h.16A10.59,10.59,0,0,1,76,70a9.24,9.24,0,0,1,4.38.93L79,76.61a11.85,11.85,0,0,0-4-.67c-2.83,0-5.74,1.47-7.71,5.57V93.38H60.51Z"/><path d="M86.27,61.16H93V79.73h.19l8.38-9.17H109L93,87.64v5.74H86.27ZM95.77,83l3.89-4.21,10.08,14.55h-7.36Z"/><path d="M113.61,75.81h21.18v4.78H113.61Z"/><path d="M147.35,90.9h-.18l-.56,2.48h-5.3V61.16h6.78V69l-.25,3.59H148A9.18,9.18,0,0,1,154.25,70c5.69,0,9.19,4.57,9.19,11.57,0,7.87-4.79,12.36-9.88,12.36A8.76,8.76,0,0,1,147.35,90.9Zm9.16-9.22c0-4.09-1.34-6.13-4.21-6.13a5.64,5.64,0,0,0-4.21,2.12v9.2A5.89,5.89,0,0,0,152,88.39C154.49,88.39,156.51,86.4,156.51,81.68Z"/><path d="M175.06,84.45v-18h-7.19v-5.3h14V84.73a3.39,3.39,0,0,0,3.72,3.74,9.75,9.75,0,0,0,3.55-.75l1.5,5a19.11,19.11,0,0,1-6.81,1.23C178,93.93,175.06,90.24,175.06,84.45Z"/><path d="M196,84.65V70.56h6.78V83.78c0,3,.8,4.38,3.32,4.38,1.68,0,2.87-.6,4.43-2.6v-15h6.77V93.38h-5.53l-.49-3.28h-.18a9.85,9.85,0,0,1-7.7,3.83C198.25,93.93,196,90.41,196,84.65Z"/><path d="M223.33,82A11.65,11.65,0,0,1,235.2,70c7,0,10.75,4.76,10.75,11a18.44,18.44,0,0,1-.29,3H228.35V79.45h12.74L240,80.74c0-3.66-1.59-5.59-4.59-5.59-3.35,0-5.54,2.27-5.54,6.81,0,4.73,2.58,6.81,7,6.81a12.56,12.56,0,0,0,5.88-1.58L245,91.26A17.39,17.39,0,0,1,236,93.93C228.86,93.93,223.33,89.54,223.33,82Z"/><path d="M256.84,73.65a5.36,5.36,0,1,1,5.36,5.41A5.24,5.24,0,0,1,256.84,73.65Zm0,14.88a5.36,5.36,0,1,1,5.36,5.4A5.25,5.25,0,0,1,256.84,88.53Z"/><path d="M284.3,80.59a27.4,27.4,0,0,1,9.75-21l3.74,3c-5.47,5.33-7.82,10.76-7.82,18s2.35,12.69,7.82,18l-3.74,3A27.4,27.4,0,0,1,284.3,80.59Z"/><path d="M305.71,89.83l3.05-4.29a10.58,10.58,0,0,0,6.88,2.93c3.33,0,5.65-1.58,5.65-4.58s-2.25-4.5-5.32-4.5a8.45,8.45,0,0,0-4.92,1.48l-3-2,.8-14.76h17.91v5.7H314.68l-.48,5.47a10.58,10.58,0,0,1,3.83-.67c5.38,0,10.05,2.85,10.05,9.07,0,6.48-5.45,10.2-11.46,10.2A15.12,15.12,0,0,1,305.71,89.83Z"/><path d="M334.07,90.42l3.57-4a8.1,8.1,0,0,0,5.15,2.1c3.74,0,7-2.6,7-10.37,0-7.26-2.74-9.4-5.51-9.4-2.34,0-4.46,1.41-4.46,4.71,0,3,1.75,4.25,4.34,4.25,1.76,0,3.74-.85,5.57-3.15l.31,4.42a11,11,0,0,1-7.35,3.51c-5.1,0-9-2.84-9-9s4.88-9.8,10.48-9.8c6,0,11.84,4.23,11.84,14.49,0,10.91-6.14,15.83-12.59,15.83A13.43,13.43,0,0,1,334.07,90.42Z"/><path d="M367.18,99.43c4.08-1.45,6-3.77,6-6.69l-.23-5.5,2.78,4.63a5,5,0,0,1-8-3.65c0-2.85,2.3-4.73,5.17-4.73,3.74,0,5.7,3,5.7,7.89,0,5.84-3.33,10.05-9.69,12Z"/><path d="M417.63,87.92h7.86V71H419V66.82a20.22,20.22,0,0,0,8.27-2.66h5V87.92h6.64v5.46H417.63Z"/><path d="M444.16,78.65c0-10,4.47-15,11.24-15s11.23,5.09,11.23,15-4.47,15.28-11.23,15.28S444.16,88.56,444.16,78.65Zm16.44,0c0-7.59-2.3-9.8-5.2-9.8s-5.2,2.21-5.2,9.8,2.3,10,5.2,10S460.6,86.23,460.6,78.65ZM452,78.56a3.45,3.45,0,1,1,3.45,3.51A3.34,3.34,0,0,1,452,78.56Z"/><path d="M471.12,89.79l3.13-4.27a11.09,11.09,0,0,0,7.12,3c3.17,0,5.47-1.24,5.47-3.48,0-2.57-2-4.15-8.81-4.15V76.05c5.72,0,7.86-1.6,7.86-3.91,0-2-1.67-3.21-4.32-3.21a9.59,9.59,0,0,0-6.19,2.55L472,67.36a15.42,15.42,0,0,1,9.91-3.75c6.39,0,10.81,2.88,10.81,8,0,3-2.09,5.16-5.6,6.49v.19c3.68,1,6.54,3.33,6.54,7.12,0,5.43-5.41,8.5-11.59,8.5C477,93.93,473.38,92.25,471.12,89.79Z"/><path d="M505.18,99.43c4.08-1.45,6-3.77,6-6.69l-.23-5.5,2.78,4.63a5,5,0,0,1-8-3.65c0-2.85,2.3-4.73,5.18-4.73,3.74,0,5.7,3,5.7,7.89,0,5.84-3.34,10.05-9.69,12Z"/><path d="M554.65,89.5c8.38-7,14-12,14-16.19,0-2.83-1.76-4.38-4.82-4.38-2.33,0-4.23,1.43-5.88,3l-3.64-3.65c3-3.07,6-4.63,10.44-4.63,6.16,0,10.33,3.68,10.33,9.31,0,4.93-5.05,10.17-10.72,15.1,1.67-.17,3.79-.33,5.31-.33h6.92v5.69h-22Z"/><path d="M583.22,87.92h7.87V71h-6.48V66.82a20.22,20.22,0,0,0,8.28-2.66h5V87.92h6.65v5.46H583.22Z"/><path d="M609.76,78.65c0-10,4.47-15,11.23-15s11.24,5.09,11.24,15S627.76,93.93,621,93.93,609.76,88.56,609.76,78.65Zm16.43,0c0-7.59-2.3-9.8-5.2-9.8s-5.2,2.21-5.2,9.8,2.3,10,5.2,10S626.19,86.23,626.19,78.65Zm-8.65-.09A3.45,3.45,0,1,1,621,82.07,3.34,3.34,0,0,1,617.54,78.56Z"/><path d="M640.6,98.62c5.47-5.34,7.82-10.77,7.82-18s-2.35-12.69-7.82-18l3.75-3a27.55,27.55,0,0,1,0,42Z"/><path d="M2.44,145.64l2.87-4.23a17.44,17.44,0,0,0,9.21,2.71c2.51,0,3.62-.84,3.62-2,0-1.27-1.1-1.74-5.58-2.68-6.21-1.33-8.68-3.6-8.68-7.13,0-4.25,4-7.14,10.49-7.14a18.57,18.57,0,0,1,9.88,3.11l-3,4.07a14.74,14.74,0,0,0-7.47-2.18c-2.11,0-3.16.75-3.16,1.82,0,1.27,1.4,1.57,5.27,2.44,7,1.57,9,3.58,9,7.29,0,4.14-3.94,7.37-11.26,7.37A21.22,21.22,0,0,1,2.44,145.64Z"/><path d="M29.76,137.18c0-7.6,5.62-12,11.64-12S53,129.58,53,137.18s-5.62,11.95-11.64,11.95S29.76,144.75,29.76,137.18Zm16.35,0c0-4-1.59-6.51-4.71-6.51s-4.71,2.55-4.71,6.51,1.59,6.49,4.71,6.49S46.11,141.13,46.11,137.18Z"/><path d="M59,126l6.25-.26H79.61v5.3H59Zm6-.85c0-5.23,3-9.37,10.21-9.37a21.58,21.58,0,0,1,6.9,1.23l-1.3,5a13.32,13.32,0,0,0-4.77-.89c-2.91,0-4.29,1.26-4.29,4v23.45H65Z"/><path d="M90.82,139.12v-8.06H85.06v-5l6.06-.26.87-7h5.6v7h9.62v5.3H97.59v8c0,3.47,1.46,4.77,4.79,4.77a13.33,13.33,0,0,0,4.51-.81l1.23,4.9a25.14,25.14,0,0,1-7.46,1.23C93.4,149.13,90.82,145.11,90.82,139.12Z"/><path d="M113.61,131h21.18v4.78H113.61Z"/><path d="M147.35,146.1h-.18l-.56,2.48h-5.3V116.36h6.78v7.86l-.25,3.59H148a9.17,9.17,0,0,1,6.24-2.6c5.69,0,9.19,4.56,9.19,11.56,0,7.87-4.79,12.36-9.88,12.36A8.76,8.76,0,0,1,147.35,146.1Zm9.16-9.22c0-4.09-1.34-6.13-4.21-6.13a5.64,5.64,0,0,0-4.21,2.12v9.2a5.89,5.89,0,0,0,3.93,1.52C154.49,143.59,156.51,141.6,156.51,136.88Z"/><path d="M175.06,139.65v-18h-7.19v-5.3h14v23.57a3.39,3.39,0,0,0,3.72,3.74,9.75,9.75,0,0,0,3.55-.75l1.5,5a19.11,19.11,0,0,1-6.81,1.23C178,149.13,175.06,145.44,175.06,139.65Z"/><path d="M196,139.85V125.76h6.78V139c0,3,.8,4.38,3.32,4.38,1.68,0,2.87-.59,4.43-2.6v-15h6.77v22.82h-5.53l-.49-3.28h-.18a9.85,9.85,0,0,1-7.7,3.83C198.25,149.13,196,145.61,196,139.85Z"/><path d="M223.33,137.16a11.64,11.64,0,0,1,11.87-12c7,0,10.75,4.75,10.75,11a18.44,18.44,0,0,1-.29,3H228.35v-4.54h12.74L240,135.94c0-3.66-1.59-5.59-4.59-5.59-3.35,0-5.54,2.27-5.54,6.81,0,4.73,2.58,6.81,7,6.81a12.56,12.56,0,0,0,5.88-1.58l2.25,4.07a17.39,17.39,0,0,1-9.05,2.67C228.86,149.13,223.33,144.74,223.33,137.16Z"/><path d="M256.84,128.85a5.36,5.36,0,1,1,5.36,5.41A5.24,5.24,0,0,1,256.84,128.85Zm0,14.88a5.36,5.36,0,1,1,5.36,5.4A5.25,5.25,0,0,1,256.84,143.73Z"/><path d="M284.3,135.79a27.4,27.4,0,0,1,9.75-21l3.74,3c-5.47,5.33-7.82,10.76-7.82,18s2.35,12.69,7.82,18l-3.74,3A27.4,27.4,0,0,1,284.3,135.79Z"/><path d="M307.23,143.12h7.87V126.23h-6.48V122a20.17,20.17,0,0,0,8.27-2.66h5v23.76h6.64v5.46H307.23Z"/><path d="M333.86,144.7c8.37-7,14-12,14-16.19,0-2.83-1.76-4.38-4.82-4.38-2.33,0-4.22,1.43-5.88,3l-3.63-3.65c3-3.07,6-4.63,10.44-4.63,6.15,0,10.33,3.68,10.33,9.31,0,4.93-5.06,10.17-10.73,15.1,1.68-.17,3.8-.33,5.31-.33h6.93v5.69H333.86Z"/><path d="M361.36,133.85c0-9.95,4.47-15,11.24-15s11.23,5.09,11.23,15-4.47,15.28-11.23,15.28S361.36,143.77,361.36,133.85Zm16.44,0c0-7.59-2.3-9.8-5.2-9.8s-5.2,2.21-5.2,9.8,2.3,10,5.2,10S377.8,141.44,377.8,133.85Zm-8.65-.09a3.45,3.45,0,1,1,3.45,3.51A3.34,3.34,0,0,1,369.15,133.76Z"/><path d="M394.78,154.63c4.08-1.45,6-3.77,6-6.69l-.23-5.5,2.78,4.63a4.62,4.62,0,0,1-3,1.06,4.68,4.68,0,0,1-5-4.71c0-2.85,2.3-4.73,5.18-4.73,3.74,0,5.7,3,5.7,7.89,0,5.84-3.34,10-9.69,12Z"/><path d="M445.23,143.12h7.86V126.23h-6.47V122a20.22,20.22,0,0,0,8.27-2.66h5v23.76h6.64v5.46H445.23Z"/><path d="M471.3,145l3.05-4.29a10.61,10.61,0,0,0,6.89,2.93c3.33,0,5.65-1.58,5.65-4.58s-2.26-4.5-5.32-4.5a8.45,8.45,0,0,0-4.92,1.48l-3-1.95.8-14.76h17.9v5.7H480.28l-.48,5.47a10.55,10.55,0,0,1,3.83-.67c5.38,0,10,2.85,10,9.07,0,6.48-5.44,10.2-11.45,10.2A15.17,15.17,0,0,1,471.3,145Z"/><path d="M498.72,145l3.13-4.27a11.09,11.09,0,0,0,7.12,2.95c3.17,0,5.47-1.24,5.47-3.48,0-2.57-2-4.15-8.81-4.15v-4.79c5.72,0,7.86-1.6,7.86-3.91,0-2-1.67-3.21-4.32-3.21a9.59,9.59,0,0,0-6.19,2.55l-3.42-4.12a15.42,15.42,0,0,1,9.91-3.75c6.39,0,10.81,2.88,10.81,8,0,3-2.1,5.16-5.6,6.49v.19c3.68,1,6.54,3.33,6.54,7.12,0,5.43-5.41,8.5-11.59,8.5C504.64,149.13,501,147.45,498.72,145Z"/><path d="M532.78,154.63c4.08-1.45,6-3.77,6-6.69l-.23-5.5,2.78,4.63a5,5,0,0,1-8-3.65c0-2.85,2.3-4.73,5.18-4.73,3.74,0,5.7,3,5.7,7.89,0,5.84-3.34,10-9.69,12Z"/><path d="M582.25,144.7c8.38-7,14-12,14-16.19,0-2.83-1.76-4.38-4.82-4.38-2.33,0-4.23,1.43-5.88,3l-3.64-3.65c3-3.07,6-4.63,10.44-4.63,6.15,0,10.33,3.68,10.33,9.31,0,4.93-5.05,10.17-10.72,15.1,1.67-.17,3.79-.33,5.31-.33h6.92v5.69h-22Z"/><path d="M609.12,145l3.12-4.27a11.12,11.12,0,0,0,7.13,2.95c3.17,0,5.46-1.24,5.46-3.48,0-2.57-2-4.15-8.8-4.15v-4.79c5.72,0,7.86-1.6,7.86-3.91,0-2-1.68-3.21-4.32-3.21a9.63,9.63,0,0,0-6.2,2.55L610,122.56a15.42,15.42,0,0,1,9.91-3.75c6.39,0,10.8,2.88,10.8,8,0,3-2.09,5.16-5.59,6.49v.19c3.68,1,6.54,3.33,6.54,7.12,0,5.43-5.42,8.5-11.59,8.5C615,149.13,611.38,147.45,609.12,145Z"/><path d="M637.57,134.64c0-10.91,6.12-15.83,12.58-15.83a13.4,13.4,0,0,1,9.32,3.53l-3.58,4a8.05,8.05,0,0,0-5.14-2.12c-3.76,0-7,2.6-7,10.37,0,7.26,2.72,9.41,5.51,9.41,2.32,0,4.44-1.41,4.44-4.71,0-3-1.73-4.26-4.32-4.26-1.78,0-3.76.86-5.59,3.15l-.31-4.42a11.1,11.1,0,0,1,7.35-3.5c5.1,0,9.06,2.83,9.06,9s-4.89,9.79-10.5,9.79C643.4,149.13,637.57,144.9,637.57,134.64Z"/><path d="M668.2,153.82c5.47-5.34,7.82-10.76,7.82-18s-2.35-12.69-7.82-18l3.75-3a27.55,27.55,0,0,1,0,42Z"/><path d="M2.16,192.38c0-7.47,4.8-12,9.76-12a7.53,7.53,0,0,1,5.75,2.46h.16l-.32-3.53v-7.77h6.78v32.22H18.77l-.49-2.35h-.17a9.47,9.47,0,0,1-6.32,2.9C6,204.33,2.16,199.83,2.16,192.38Zm15.35,4.29v-9.21A5.36,5.36,0,0,0,13.7,186c-2.47,0-4.61,2-4.61,6.35s1.66,6.49,4.42,6.49A4.7,4.7,0,0,0,17.51,196.67Z"/><path d="M30.42,197.45c0-5.11,4.22-7.72,15-8.37-.24-2-1.78-3.29-4.84-3.29-2.2,0-4.39.85-7,2.14l-2.41-4.44A21.72,21.72,0,0,1,41.9,180.4c6.41,0,10.3,3.34,10.3,10.33v13.05H46.67l-.49-2.57H46a14,14,0,0,1-8.09,3.12C33.3,204.33,30.42,201.29,30.42,197.45Zm15-.54v-3.74c-6.72.34-8.52,1.79-8.52,3.74,0,1.47,1.24,2.18,3.15,2.18A8.75,8.75,0,0,0,45.43,196.91Z"/><path d="M60.51,181h5.56l.54,5h.16A10.59,10.59,0,0,1,76,180.4a9.24,9.24,0,0,1,4.38.93L79,187a11.85,11.85,0,0,0-4-.67c-2.83,0-5.74,1.47-7.71,5.57v11.87H60.51Z"/><path d="M86.27,171.56H93v18.57h.19l8.38-9.17H109L93,198v5.74H86.27Zm9.5,21.88,3.89-4.21,10.08,14.55h-7.36Z"/><path d="M112.93,192.36a11.65,11.65,0,0,1,11.87-12c7,0,10.75,4.76,10.75,11a18.44,18.44,0,0,1-.29,3H118v-4.54h12.74l-1.07,1.29c0-3.66-1.59-5.59-4.59-5.59-3.35,0-5.54,2.27-5.54,6.81,0,4.73,2.58,6.81,7,6.81a12.52,12.52,0,0,0,5.87-1.58l2.25,4.07a17.39,17.39,0,0,1-9,2.67C118.47,204.33,112.93,199.94,112.93,192.36Z"/><path d="M143.31,181h5.56l.54,5h.15a10.61,10.61,0,0,1,9.26-5.55,9.24,9.24,0,0,1,4.38.93L161.83,187a11.85,11.85,0,0,0-4-.67c-2.83,0-5.74,1.47-7.71,5.57v11.87h-6.77Z"/><path d="M175,201.3h-.18l-.56,2.48h-5.3V171.56h6.78v7.86l-.25,3.59h.17a9.18,9.18,0,0,1,6.23-2.61c5.7,0,9.2,4.57,9.2,11.57,0,7.87-4.79,12.36-9.88,12.36A8.76,8.76,0,0,1,175,201.3Zm9.16-9.22c0-4.09-1.35-6.13-4.21-6.13a5.64,5.64,0,0,0-4.21,2.12v9.2a5.89,5.89,0,0,0,3.93,1.52C182.09,198.79,184.11,196.8,184.11,192.08Z"/><path d="M202.66,194.85v-18h-7.19v-5.3h14v23.57a3.39,3.39,0,0,0,3.72,3.74,9.75,9.75,0,0,0,3.55-.75l1.5,5a19.11,19.11,0,0,1-6.81,1.23C205.64,204.33,202.66,200.64,202.66,194.85Z"/><path d="M223.64,195.05V181h6.78v13.22c0,3,.8,4.38,3.32,4.38,1.68,0,2.87-.6,4.43-2.6V181h6.77v22.82h-5.53l-.49-3.28h-.18a9.85,9.85,0,0,1-7.7,3.83C225.85,204.33,223.64,200.81,223.64,195.05Z"/><path d="M250.93,192.36a11.65,11.65,0,0,1,11.87-12c7,0,10.75,4.76,10.75,11a19.63,19.63,0,0,1-.29,3H256v-4.54h12.73l-1.06,1.29c0-3.66-1.59-5.59-4.59-5.59-3.35,0-5.54,2.27-5.54,6.81,0,4.73,2.58,6.81,7,6.81a12.56,12.56,0,0,0,5.88-1.58l2.25,4.07a17.39,17.39,0,0,1-9.05,2.67C256.46,204.33,250.93,199.94,250.93,192.36Z"/><path d="M284.44,184.05a5.36,5.36,0,1,1,5.36,5.41A5.24,5.24,0,0,1,284.44,184.05Zm0,14.88a5.36,5.36,0,1,1,5.36,5.4A5.25,5.25,0,0,1,284.44,198.93Z"/><path d="M311.9,191a27.42,27.42,0,0,1,9.74-21l3.75,3c-5.47,5.33-7.82,10.76-7.82,18s2.35,12.69,7.82,18l-3.75,3A27.42,27.42,0,0,1,311.9,191Z"/><path d="M333.86,199.9c8.37-7,14-12,14-16.19,0-2.83-1.76-4.38-4.82-4.38-2.33,0-4.22,1.43-5.88,3l-3.63-3.65c3-3.07,6-4.63,10.44-4.63,6.15,0,10.33,3.68,10.33,9.31,0,4.93-5.06,10.17-10.73,15.1,1.68-.17,3.8-.33,5.31-.33h6.93v5.69H333.86Z"/><path d="M362.43,198.32h7.87V181.43h-6.48v-4.21a20.22,20.22,0,0,0,8.27-2.66h5v23.76h6.64v5.46H362.43Z"/><path d="M394.78,209.83c4.08-1.45,6-3.77,6-6.69l-.23-5.5,2.78,4.63a4.62,4.62,0,0,1-3,1.06,4.68,4.68,0,0,1-5-4.71c0-2.85,2.3-4.73,5.18-4.73,3.74,0,5.7,3,5.7,7.88,0,5.85-3.34,10.06-9.69,12Z"/><path d="M459.11,180.26H444.45v-5.7H466.4v4.17c-7.41,8.15-8.56,13.65-9.12,25.05h-6.83C451,194.05,453,188,459.11,180.26Z"/><path d="M471.12,200.19l3.13-4.27a11.09,11.09,0,0,0,7.12,3c3.17,0,5.47-1.24,5.47-3.48,0-2.57-2-4.15-8.81-4.15v-4.79c5.72,0,7.86-1.6,7.86-3.91,0-2-1.67-3.21-4.32-3.21a9.59,9.59,0,0,0-6.19,2.55L472,177.76a15.42,15.42,0,0,1,9.91-3.75c6.39,0,10.81,2.88,10.81,8,0,3-2.09,5.16-5.6,6.49v.19c3.68,1,6.54,3.33,6.54,7.12,0,5.43-5.41,8.5-11.59,8.5C477,204.33,473.38,202.65,471.12,200.19Z"/><path d="M505.18,209.83c4.08-1.45,6-3.77,6-6.69l-.23-5.5,2.78,4.63a5,5,0,0,1-8-3.65c0-2.85,2.3-4.73,5.18-4.73,3.74,0,5.7,3,5.7,7.88,0,5.85-3.34,10.06-9.69,12Z"/><path d="M555.63,198.32h7.86V181.43H557v-4.21a20.22,20.22,0,0,0,8.28-2.66h5v23.76h6.65v5.46H555.63Z"/><path d="M597.11,180.26H582.45v-5.7H604.4v4.17c-7.41,8.15-8.57,13.65-9.13,25.05h-6.82C589,194.05,591,188,597.11,180.26Z"/><path d="M609.3,200.23l3.05-4.29a10.61,10.61,0,0,0,6.89,2.93c3.33,0,5.65-1.58,5.65-4.58s-2.26-4.5-5.32-4.5a8.45,8.45,0,0,0-4.92,1.48l-3-2,.8-14.76h17.9v5.7H618.28l-.49,5.47a10.6,10.6,0,0,1,3.84-.67c5.38,0,10,2.85,10,9.07,0,6.48-5.44,10.2-11.45,10.2A15.15,15.15,0,0,1,609.3,200.23Z"/><path d="M640.6,209c5.47-5.34,7.82-10.77,7.82-18s-2.35-12.69-7.82-18l3.75-3a27.55,27.55,0,0,1,0,42Z"/><path d="M4.82,284.2H24.76v5.69H11.61v6.95H22.84v5.69H11.61v11.65H4.82Z"/><path d="M29.76,302.78c0-7.6,5.62-12,11.64-12S53,295.18,53,302.78s-5.62,12-11.64,12S29.76,310.35,29.76,302.78Zm16.35,0c0-4-1.59-6.51-4.71-6.51s-4.71,2.55-4.71,6.51,1.59,6.49,4.71,6.49S46.11,306.73,46.11,302.78Z"/><path d="M58.51,291.36H64l.49,3h.19a11.07,11.07,0,0,1,7.88-3.6c5.16,0,7.43,3.53,7.43,9.29v14.09H73.25V301c0-3-.87-4.39-3.35-4.39-1.8,0-3,.84-4.61,2.38v15.23H58.51Z"/><path d="M90.82,304.72v-8.06H85.06v-5l6.06-.26.87-7h5.6v7h9.62v5.3H97.59v8c0,3.48,1.46,4.78,4.79,4.78a13.33,13.33,0,0,0,4.51-.81l1.23,4.9a25.14,25.14,0,0,1-7.46,1.23C93.4,314.73,90.82,310.71,90.82,304.72Z"/><path d="M118.85,294.45a5.35,5.35,0,1,1,5.35,5.41A5.23,5.23,0,0,1,118.85,294.45Zm0,14.88a5.35,5.35,0,1,1,5.35,5.4A5.24,5.24,0,0,1,118.85,309.33Z"/><path d="M168.68,302.78c0-7.6,6.17-12,13.2-12a12.34,12.34,0,0,1,8.54,3.11l-3.12,4.19a8.38,8.38,0,0,0-5.05-1.83c-3.93,0-6.64,2.55-6.64,6.51a6.12,6.12,0,0,0,6.41,6.49,10.54,10.54,0,0,0,6-2.18l2.73,4.28a14.81,14.81,0,0,1-9.38,3.36C174.19,314.73,168.68,310.35,168.68,302.78Z"/><path d="M196,307.85c0-5.11,4.23-7.72,15-8.37-.24-2-1.78-3.29-4.84-3.29-2.2,0-4.39.85-7,2.14l-2.42-4.44a21.78,21.78,0,0,1,10.69-3.09c6.41,0,10.3,3.34,10.3,10.33v13.05h-5.53l-.49-2.57h-.17a14,14,0,0,1-8.09,3.12C198.9,314.73,196,311.69,196,307.85Zm15-.54v-3.74c-6.72.34-8.52,1.79-8.52,3.74,0,1.47,1.24,2.18,3.15,2.18A8.78,8.78,0,0,0,211,307.31Z"/><path d="M233.6,296.66h-9.19v-5.3h16v22.82H233.6Zm-1.42-13a4.51,4.51,0,0,1,9,0c0,2.5-1.88,4.14-4.5,4.14S232.18,286.15,232.18,283.65Z"/><path d="M253.71,291.36h5.56l.53,5H260a10.61,10.61,0,0,1,9.26-5.55,9.27,9.27,0,0,1,4.38.93l-1.37,5.68a11.85,11.85,0,0,0-4-.67c-2.83,0-5.74,1.47-7.71,5.57v11.87h-6.77Z"/><path d="M278.16,302.78c0-7.6,5.62-12,11.64-12s11.64,4.38,11.64,12-5.62,12-11.64,12S278.16,310.35,278.16,302.78Zm16.35,0c0-4-1.6-6.51-4.71-6.51s-4.71,2.55-4.71,6.51,1.59,6.49,4.71,6.49S294.51,306.73,294.51,302.78Z"/></svg>