<?xml version="1.0" encoding="utf-8"?>
<!-- Generator: Adobe Illustrator 24.0.2, SVG Export Plug-In . SVG Version: 6.00 Build 0)  -->
<svg version="1.1" xmlns="http://www.w3.org/2000/svg" xmlns:xlink="http://www.w3.org/1999/xlink" x="0px" y="0px"
	 viewBox="0 0 52.6 52.7" style="enable-background:new 0 0 52.6 52.7;" xml:space="preserve">
<style type="text/css">
	.st0{fill:#F2F2F2;}
	.st1{opacity:0.8;clip-path:url(#SVGID_2_);}
	.st2{opacity:0.71;}
	.st3{fill:#C9C9C9;}
	.st4{opacity:0.53;}
	.st5{opacity:0.85;}
	.st6{opacity:0.67;}
	.st7{opacity:0.44;}
	.st8{opacity:0.72;}
	.st9{opacity:0.56;}
	.st10{opacity:0.57;}
	.st11{opacity:0.51;}
	.st12{opacity:0.52;}
	.st13{opacity:0.47;}
	.st14{opacity:0.76;}
	.st15{opacity:0.82;}
	.st16{opacity:0.54;}
	.st17{opacity:0.94;}
	.st18{opacity:0.78;}
	.st19{opacity:0.62;}
	.st20{opacity:0.87;}
	.st21{opacity:0.45;}
	.st22{opacity:0.81;}
	.st23{opacity:0.64;}
	.st24{opacity:0.4;}
	.st25{opacity:0.66;}
	.st26{opacity:0.41;}
	.st27{opacity:0.77;}
	.st28{opacity:0.88;}
	.st29{opacity:0.93;}
	.st30{opacity:0.61;}
	.st31{opacity:0.84;}
	.st32{opacity:0.69;}
	.st33{opacity:0.74;}
	.st34{opacity:0.58;}
	.st35{opacity:0.6;}
	.st36{opacity:0.49;}
	.st37{opacity:0.99;}
	.st38{opacity:0.59;}
	.st39{opacity:0.65;}
	.st40{opacity:0.43;}
	.st41{opacity:0.75;}
	.st42{opacity:0.73;}
	.st43{opacity:0.92;}
	.st44{opacity:0.7;clip-path:url(#SVGID_4_);}
	.st45{opacity:0.7;}
	.st46{fill:none;}
	.st47{fill:#3B67D2;}
	.st48{fill:none;stroke:#3B67D2;stroke-miterlimit:10;}
	.st49{fill:#7899EC;}
	.st50{fill:#494949;}
	.st51{fill:#FF0000;}
	.st52{fill:#1549AF;}
	.st53{fill-rule:evenodd;clip-rule:evenodd;fill:#1549AF;}
	.st54{fill:none;stroke:#3B67D2;stroke-width:0.5;stroke-miterlimit:10;}
	.st55{fill:#FFFFFF;}
	.st56{fill:none;stroke:#3B67D2;stroke-width:3;stroke-miterlimit:10;}
	.st57{fill:none;stroke:#1549AF;stroke-miterlimit:10;}
	.st58{fill:#EAEAEA;}
	.st59{fill:none;stroke:#1549AF;stroke-width:2;stroke-miterlimit:10;}
	.st60{display:none;}
	.st61{display:inline;opacity:0.8;}
	.st62{display:inline;}
	.st63{display:inline;fill:#FFFFFF;}
</style>
<g id="Fondo">
	<g>
		<defs>
			<rect id="SVGID_3_" x="-526.1" y="180.4" width="1920" height="1080"/>
		</defs>
		<clipPath id="SVGID_2_">
			<use xlink:href="#SVGID_3_"  style="overflow:visible;"/>
		</clipPath>
		<g style="opacity:0.7;clip-path:url(#SVGID_2_);">
			<g>
				<g class="st9">
					<path class="st3" d="M24.1,24.6C24,24.5,24,24.4,24,24.2c0-0.2,0-0.3,0.1-0.4c0.1-0.1,0.2-0.1,0.3-0.1c0.1,0,0.2,0,0.3,0.1
						c0.1,0.1,0.1,0.2,0.1,0.4c0,0.2,0,0.3-0.1,0.4c-0.1,0.1-0.2,0.1-0.3,0.1C24.3,24.7,24.2,24.7,24.1,24.6z M24.2,24
						c0,0.1-0.1,0.2-0.1,0.3s0,0.2,0.1,0.3c0,0.1,0.1,0.1,0.2,0.1c0.1,0,0.1,0,0.2-0.1c0-0.1,0.1-0.2,0.1-0.3s0-0.2-0.1-0.3
						c0-0.1-0.1-0.1-0.2-0.1C24.3,23.9,24.3,23.9,24.2,24z"/>
					<path class="st3" d="M49.1,24.2L49.1,24.2L49.1,24.2L49.1,24.2L49.1,24.2L49.1,24.2L49.1,24.2z"/>
					<path class="st3" d="M24.2,48.5h0.4v1h-0.2v-0.8h-0.2V48.5z"/>
					<path class="st3" d="M49.1,49C49.1,49,49.1,49,49.1,49C49.1,49,49.1,48.9,49.1,49C49.1,48.9,49.1,48.9,49.1,49
						C49.2,48.9,49.2,48.9,49.1,49C49.2,48.9,49.2,49,49.1,49C49.2,49,49.2,49,49.1,49C49.2,49,49.2,49,49.1,49
						C49.1,49,49.1,49,49.1,49z M49.1,48.9C49.1,49,49.1,49,49.1,48.9C49.1,49,49.1,49,49.1,48.9C49.1,49,49.1,49,49.1,48.9
						C49.2,49,49.2,49,49.1,48.9C49.2,49,49.2,49,49.1,48.9C49.2,49,49.2,49,49.1,48.9C49.2,48.9,49.2,48.9,49.1,48.9
						C49.1,48.9,49.1,48.9,49.1,48.9z"/>
				</g>
			</g>
		</g>
	</g>
</g>
<g id="Elementos">
	<g>
		<g>
			<path class="st52" d="M26.3,1.3c13.8,0,25,11.2,25,25c0,13.8-11.2,25-25,25c-13.8,0-25-11.2-25-25C1.3,12.5,12.5,1.3,26.3,1.3
				 M26.3,0C11.8,0,0,11.8,0,26.3c0,14.5,11.8,26.3,26.3,26.3c14.5,0,26.3-11.8,26.3-26.3C52.6,11.8,40.8,0,26.3,0L26.3,0z"/>
		</g>
		<g>
			<path class="st53" d="M36.3,12.8c-6.6,0-13.3,0-19.9,0c-2.4,0-3.6,1.3-3.6,3.6c0,3.3,0,6.6,0,9.9c0,3.3,0,6.7,0,10
				c0,2.3,1.3,3.5,3.5,3.5c6.7,0,13.4,0,20,0c2.3,0,3.6-1.2,3.6-3.6c0-6.7,0-13.3,0-19.9C39.9,14.1,38.6,12.8,36.3,12.8z M34.1,15.9
				c2.7,0,2.7,0,2.7,2.7c0,2.6,0,2.6-2.6,2.6c-2.7,0-2.7,0-2.7-2.7C31.5,15.9,31.5,15.9,34.1,15.9z M26.3,21.1
				c2.8,0,5.3,2.4,5.2,5.3c0,2.9-2.4,5.3-5.3,5.2c-2.8,0-5.3-2.5-5.2-5.3C21.1,23.4,23.5,21.1,26.3,21.1z M36.8,35.2
				c0,1.3-0.4,1.6-1.6,1.6c-3,0-5.9,0-8.9,0c-2.9,0-5.9,0-8.8,0c-1.2,0-1.6-0.4-1.6-1.6c0-3.3,0-6.6,0-9.9c0-0.9,0.3-1.1,1.1-1.1
				c1.2,0.1,1.3,0,1.1,1.3c-0.5,4.2,2.4,8.2,6.5,9c4.2,0.8,8.5-1.7,9.7-5.8c0.4-1.3,0.5-2.6,0.2-3.9c-0.1-0.5,0-0.6,0.4-0.6
				c1.9-0.2,1.9-0.2,1.9,1.8C36.8,29,36.8,32.1,36.8,35.2z"/>
		</g>
	</g>
</g>
<g id="Capas">
</g>
</svg>
