<?xml version="1.0" encoding="utf-8"?>
<!-- Generator: Adobe Illustrator 24.0.2, SVG Export Plug-In . SVG Version: 6.00 Build 0)  -->
<svg version="1.1" xmlns="http://www.w3.org/2000/svg" xmlns:xlink="http://www.w3.org/1999/xlink" x="0px" y="0px"
	 viewBox="0 0 52.6 52.7" style="enable-background:new 0 0 52.6 52.7;" xml:space="preserve">
<style type="text/css">
	.st0{fill:#F2F2F2;}
	.st1{opacity:0.8;clip-path:url(#SVGID_2_);}
	.st2{opacity:0.71;}
	.st3{fill:#C9C9C9;}
	.st4{opacity:0.53;}
	.st5{opacity:0.85;}
	.st6{opacity:0.67;}
	.st7{opacity:0.44;}
	.st8{opacity:0.72;}
	.st9{opacity:0.56;}
	.st10{opacity:0.57;}
	.st11{opacity:0.51;}
	.st12{opacity:0.52;}
	.st13{opacity:0.47;}
	.st14{opacity:0.76;}
	.st15{opacity:0.82;}
	.st16{opacity:0.54;}
	.st17{opacity:0.94;}
	.st18{opacity:0.78;}
	.st19{opacity:0.62;}
	.st20{opacity:0.87;}
	.st21{opacity:0.45;}
	.st22{opacity:0.81;}
	.st23{opacity:0.64;}
	.st24{opacity:0.4;}
	.st25{opacity:0.66;}
	.st26{opacity:0.41;}
	.st27{opacity:0.77;}
	.st28{opacity:0.88;}
	.st29{opacity:0.93;}
	.st30{opacity:0.61;}
	.st31{opacity:0.84;}
	.st32{opacity:0.69;}
	.st33{opacity:0.74;}
	.st34{opacity:0.58;}
	.st35{opacity:0.6;}
	.st36{opacity:0.49;}
	.st37{opacity:0.99;}
	.st38{opacity:0.59;}
	.st39{opacity:0.65;}
	.st40{opacity:0.43;}
	.st41{opacity:0.75;}
	.st42{opacity:0.73;}
	.st43{opacity:0.92;}
	.st44{opacity:0.7;clip-path:url(#SVGID_4_);}
	.st45{opacity:0.7;}
	.st46{fill:none;}
	.st47{fill:#3B67D2;}
	.st48{fill:none;stroke:#3B67D2;stroke-miterlimit:10;}
	.st49{fill:#7899EC;}
	.st50{fill:#494949;}
	.st51{fill:#FF0000;}
	.st52{fill:#1549AF;}
	.st53{fill-rule:evenodd;clip-rule:evenodd;fill:#1549AF;}
	.st54{fill:none;stroke:#3B67D2;stroke-width:0.5;stroke-miterlimit:10;}
	.st55{fill:#FFFFFF;}
	.st56{fill:none;stroke:#3B67D2;stroke-width:3;stroke-miterlimit:10;}
	.st57{fill:none;stroke:#1549AF;stroke-miterlimit:10;}
	.st58{fill:#EAEAEA;}
	.st59{fill:none;stroke:#1549AF;stroke-width:2;stroke-miterlimit:10;}
	.st60{display:none;}
	.st61{display:inline;opacity:0.8;}
	.st62{display:inline;}
	.st63{display:inline;fill:#FFFFFF;}
</style>
<g id="Fondo">
	<g>
		<defs>
			<rect id="SVGID_3_" x="-734.4" y="180.4" width="1920" height="1080"/>
		</defs>
		<clipPath id="SVGID_2_">
			<use xlink:href="#SVGID_3_"  style="overflow:visible;"/>
		</clipPath>
		<g style="opacity:0.7;clip-path:url(#SVGID_2_);">
			<g>
				<g class="st22">
					<path class="st3" d="M16.4,7h0.3v0.9h-0.1V7.2h-0.2V7z"/>
					<path class="st3" d="M16.2,32.5c-0.1-0.1-0.1-0.2-0.1-0.3c0-0.1,0-0.2,0.1-0.3c0.1-0.1,0.1-0.1,0.3-0.1s0.2,0,0.3,0.1
						c0.1,0.1,0.1,0.2,0.1,0.3c0,0.1,0,0.2-0.1,0.3s-0.1,0.1-0.3,0.1S16.3,32.6,16.2,32.5z M16.3,32c0,0.1-0.1,0.1-0.1,0.2
						c0,0.1,0,0.2,0.1,0.2c0,0.1,0.1,0.1,0.2,0.1s0.1,0,0.2-0.1c0-0.1,0.1-0.1,0.1-0.2s0-0.2-0.1-0.2c0-0.1-0.1-0.1-0.2-0.1
						S16.4,31.9,16.3,32z"/>
				</g>
				<g class="st35">
					<path class="st3" d="M5.2,50.1L5.2,50.1l0,0.1h0L5.2,50.1L5.2,50.1L5.2,50.1z"/>
				</g>
			</g>
		</g>
	</g>
</g>
<g id="Elementos">
	<g>
		<g>
			<path class="st52" d="M26.3,1.3c13.8,0,25,11.2,25,25c0,13.8-11.2,25-25,25c-13.8,0-25-11.2-25-25C1.3,12.5,12.5,1.3,26.3,1.3
				 M26.3,0C11.8,0,0,11.8,0,26.3c0,14.5,11.8,26.3,26.3,26.3c14.5,0,26.3-11.8,26.3-26.3C52.6,11.8,40.8,0,26.3,0L26.3,0z"/>
		</g>
		<g>
			<rect x="14" y="20.1" class="st52" width="6.1" height="17.4"/>
			<path class="st52" d="M17.1,11.4c-1.9,0-3.4,1.7-3,3.7c0.2,1.1,1.2,2.1,2.3,2.3c2,0.4,3.7-1.1,3.7-3
				C20.1,12.8,18.8,11.4,17.1,11.4z"/>
			<path class="st52" d="M40.1,25.4c-0.4-3.3-2-5.3-6.5-5.3c-3.1,0-4.4,0.5-5.1,1.9l0,0v-1.9h-4.9v17.4h5.1v-9.1c0-2.3,0.4-4,3.2-4
				c2.8,0,3,2.1,3,4.1v8.9h5.2C40.1,37.5,40.2,26.2,40.1,25.4z"/>
		</g>
	</g>
</g>
<g id="Capas">
</g>
</svg>
