<svg xmlns="http://www.w3.org/2000/svg" xmlns:xlink="http://www.w3.org/1999/xlink" viewBox="0 0 54.8 36.53"><defs><style>.cls-1{fill:none;}.cls-2{clip-path:url(#clip-path);}.cls-3{opacity:0.7;}.cls-4{opacity:0.56;}.cls-5{fill:#c9c9c9;}.cls-6{opacity:0.52;}.cls-7{opacity:0.94;}.cls-8{fill:#1549af;}</style><clipPath id="clip-path"><rect class="cls-1" x="-211.76" y="172.35" width="1920" height="1080"/></clipPath></defs><title>portfolio</title><g id="Fondo"><g class="cls-2"><g class="cls-3"><g class="cls-4"><path class="cls-5" d="M19.83,11.68H20v.41h-.06v-.35h-.09Z"/><path class="cls-5" d="M19.83,24.78H20v.41h-.06v-.35h-.09Z"/></g><g class="cls-6"><path class="cls-5" d="M9.46,4a.1.1,0,0,1,0-.12.06.06,0,0,1,0,0l0,0a.1.1,0,0,1,0,.12l0,0A.06.06,0,0,1,9.46,4Zm0-.1s0,0,0,0,0,0,0,0,0,0,0,0a0,0,0,0,0,0,0s0,0,0,0,0,0,0,0a0,0,0,0,0,0,0S9.48,3.86,9.48,3.87Z"/><path class="cls-5" d="M9.48,16.93h0v.16h0V17h0Z"/><path class="cls-5" d="M9.46,30.17a.14.14,0,0,1,0-.06.08.08,0,0,1,0-.06.06.06,0,0,1,0,0l0,0a.08.08,0,0,1,0,.06.14.14,0,0,1,0,.06l0,0A.06.06,0,0,1,9.46,30.17Zm0-.1s0,0,0,0,0,0,0,0,0,0,0,0a0,0,0,0,0,0,0s0,0,0,0,0,0,0,0a0,0,0,0,0,0,0S9.48,30.06,9.48,30.07Z"/></g><g class="cls-7"><path class="cls-5" d="M44,8h0v.16h0V8h0Z"/><path class="cls-5" d="M44,21.06h0v.16h0v-.13h0Z"/><path class="cls-5" d="M43.93,34.3a.14.14,0,0,1,0-.06.11.11,0,0,1,0-.06l0,0,.05,0a.11.11,0,0,1,0,.06.14.14,0,0,1,0,.06l-.05,0Zm0-.1v.08l0,0s0,0,0,0,0,0,0,0,0,0,0,0,0,0,0,0Z"/></g></g></g></g><g id="Elementos"><path class="cls-8" d="M4.21,0A4.2,4.2,0,0,0,2.63.31L26.15,21.25a1.75,1.75,0,0,0,2.54,0L52.16.31A4.12,4.12,0,0,0,50.58,0ZM0,3.62a5.85,5.85,0,0,0,0,.6v28.1a4.19,4.19,0,0,0,.33,1.62L16.55,18.35,0,3.62Zm54.71,0L38.29,18.33l16.2,15.59a4.26,4.26,0,0,0,.31-1.6V4.22a3.94,3.94,0,0,0,0-.6ZM35.13,21.16,31.5,24.41a6.16,6.16,0,0,1-8.16,0l-3.63-3.22-16,15.32a3.85,3.85,0,0,0,.48,0H50.58a3.46,3.46,0,0,0,.46,0Z"/></g></svg>