<?xml version="1.0" encoding="utf-8"?>
<!-- Generator: Adobe Illustrator 24.0.2, SVG Export Plug-In . SVG Version: 6.00 Build 0)  -->
<svg version="1.1" xmlns="http://www.w3.org/2000/svg" xmlns:xlink="http://www.w3.org/1999/xlink" x="0px" y="0px"
	 viewBox="0 0 51.8 50.9" style="enable-background:new 0 0 51.8 50.9;" xml:space="preserve">
<style type="text/css">
	.st0{fill:#F2F2F2;}
	.st1{opacity:0.8;clip-path:url(#SVGID_2_);}
	.st2{opacity:0.71;}
	.st3{fill:#C9C9C9;}
	.st4{opacity:0.53;}
	.st5{opacity:0.85;}
	.st6{opacity:0.67;}
	.st7{opacity:0.44;}
	.st8{opacity:0.72;}
	.st9{opacity:0.56;}
	.st10{opacity:0.57;}
	.st11{opacity:0.51;}
	.st12{opacity:0.52;}
	.st13{opacity:0.47;}
	.st14{opacity:0.76;}
	.st15{opacity:0.82;}
	.st16{opacity:0.54;}
	.st17{opacity:0.94;}
	.st18{opacity:0.78;}
	.st19{opacity:0.62;}
	.st20{opacity:0.87;}
	.st21{opacity:0.45;}
	.st22{opacity:0.81;}
	.st23{opacity:0.64;}
	.st24{opacity:0.4;}
	.st25{opacity:0.66;}
	.st26{opacity:0.41;}
	.st27{opacity:0.77;}
	.st28{opacity:0.88;}
	.st29{opacity:0.93;}
	.st30{opacity:0.61;}
	.st31{opacity:0.84;}
	.st32{opacity:0.69;}
	.st33{opacity:0.74;}
	.st34{opacity:0.58;}
	.st35{opacity:0.6;}
	.st36{opacity:0.49;}
	.st37{opacity:0.99;}
	.st38{opacity:0.59;}
	.st39{opacity:0.65;}
	.st40{opacity:0.43;}
	.st41{opacity:0.75;}
	.st42{opacity:0.73;}
	.st43{opacity:0.92;}
	.st44{opacity:0.7;clip-path:url(#SVGID_4_);}
	.st45{opacity:0.7;}
	.st46{fill:none;}
	.st47{fill:#3B67D2;}
	.st48{fill:none;stroke:#3B67D2;stroke-miterlimit:10;}
	.st49{fill:#7899EC;}
	.st50{fill:#494949;}
	.st51{fill:#FF0000;}
	.st52{fill:#1549AF;}
	.st53{fill-rule:evenodd;clip-rule:evenodd;fill:#1549AF;}
	.st54{fill:none;stroke:#3B67D2;stroke-width:0.5;stroke-miterlimit:10;}
	.st55{fill:#FFFFFF;}
	.st56{fill:none;stroke:#3B67D2;stroke-width:3;stroke-miterlimit:10;}
	.st57{fill:none;stroke:#1549AF;stroke-miterlimit:10;}
	.st58{fill:#EAEAEA;}
	.st59{fill:none;stroke:#1549AF;stroke-width:2;stroke-miterlimit:10;}
	.st60{display:none;}
	.st61{display:inline;opacity:0.8;}
	.st62{display:inline;}
	.st63{display:inline;fill:#FFFFFF;}
</style>
<g id="Fondo">
	<g>
		<defs>
			<rect id="SVGID_3_" x="-626.7" y="179.5" width="1920" height="1080"/>
		</defs>
		<clipPath id="SVGID_2_">
			<use xlink:href="#SVGID_3_"  style="overflow:visible;"/>
		</clipPath>
		<g style="opacity:0.7;clip-path:url(#SVGID_2_);">
			<g>
				<g class="st8">
					<path class="st3" d="M13.6,21.4C13.6,21.4,13.5,21.4,13.6,21.4C13.5,21.3,13.6,21.3,13.6,21.4C13.6,21.3,13.6,21.3,13.6,21.4
						C13.6,21.3,13.6,21.3,13.6,21.4C13.6,21.3,13.6,21.3,13.6,21.4C13.6,21.4,13.6,21.4,13.6,21.4C13.6,21.4,13.6,21.4,13.6,21.4
						C13.6,21.4,13.6,21.4,13.6,21.4z M13.6,21.3C13.6,21.3,13.6,21.3,13.6,21.3C13.6,21.4,13.6,21.4,13.6,21.3
						C13.6,21.4,13.6,21.4,13.6,21.3C13.6,21.4,13.6,21.4,13.6,21.3C13.6,21.4,13.6,21.4,13.6,21.3C13.6,21.3,13.6,21.3,13.6,21.3
						C13.6,21.3,13.6,21.3,13.6,21.3C13.6,21.3,13.6,21.3,13.6,21.3z"/>
					<path class="st3" d="M0.5,34.4L0.5,34.4l0,0.1h0L0.5,34.4L0.5,34.4L0.5,34.4z"/>
					<path class="st3" d="M13.4,34.6c0,0-0.1-0.1-0.1-0.2c0-0.1,0-0.1,0.1-0.2c0,0,0.1-0.1,0.2-0.1c0.1,0,0.1,0,0.2,0.1
						c0,0,0.1,0.1,0.1,0.2c0,0.1,0,0.1-0.1,0.2c0,0-0.1,0.1-0.2,0.1C13.5,34.7,13.5,34.7,13.4,34.6z M13.5,34.3c0,0,0,0.1,0,0.1
						c0,0.1,0,0.1,0,0.1s0.1,0.1,0.1,0.1c0,0,0.1,0,0.1-0.1c0,0,0-0.1,0-0.1c0-0.1,0-0.1,0-0.1C13.7,34.3,13.6,34.3,13.5,34.3
						C13.5,34.3,13.5,34.3,13.5,34.3z"/>
					<path class="st3" d="M26.7,34.4L26.7,34.4l0,0.1h0L26.7,34.4L26.7,34.4L26.7,34.4z"/>
					<path class="st3" d="M0.5,47.5L0.5,47.5l0,0.1h0L0.5,47.5L0.5,47.5L0.5,47.5z"/>
					<path class="st3" d="M13.5,47.3h0.2v0.5h-0.1v-0.4L13.5,47.3L13.5,47.3z"/>
					<path class="st3" d="M26.7,47.6C26.7,47.6,26.6,47.6,26.7,47.6C26.6,47.5,26.7,47.5,26.7,47.6C26.7,47.5,26.7,47.5,26.7,47.6
						C26.7,47.5,26.7,47.5,26.7,47.6C26.7,47.5,26.7,47.5,26.7,47.6C26.7,47.6,26.7,47.6,26.7,47.6C26.7,47.6,26.7,47.6,26.7,47.6
						C26.7,47.6,26.7,47.6,26.7,47.6z M26.7,47.5C26.7,47.5,26.7,47.5,26.7,47.5C26.7,47.6,26.7,47.6,26.7,47.5
						C26.7,47.6,26.7,47.6,26.7,47.5C26.7,47.6,26.7,47.6,26.7,47.5C26.7,47.6,26.7,47.6,26.7,47.5C26.7,47.5,26.7,47.5,26.7,47.5
						C26.7,47.5,26.7,47.5,26.7,47.5C26.7,47.5,26.7,47.5,26.7,47.5z"/>
				</g>
				<g>
				</g>
			</g>
		</g>
	</g>
</g>
<g id="Elementos">
	<g>
		<path class="st52" d="M25.9,0C11.6,0,0,11.6,0,25.9c0,11.9,8.1,22,19.1,25c0.4-0.2,0.8-0.5,0.8-0.9c0.1-1.7,0-3.3,0-4.9
			c-1.2,0.1-2.4,0.2-3.5,0.1C14,45.1,12,44,11,41.6c-0.6-1.5-1.5-2.7-2.9-3.5c-0.3-0.2-0.5-0.4-0.7-0.6c-0.3-0.3-0.2-0.6,0.2-0.7
			c0.4-0.1,0.9-0.1,1.3-0.1c1.6,0.3,2.7,1.3,3.6,2.6c1.7,2.6,4.3,3.4,7.2,2.2c0.2-0.1,0.4-0.2,0.4-0.4c0.2-1.2,0.7-2.2,1.6-3.2
			c-1-0.2-1.9-0.3-2.8-0.5c-2.6-0.6-4.9-1.7-6.5-3.8c-1.4-1.7-2-3.7-2.3-5.9c-0.5-3.4,0-6.5,2.3-9.2c0.1-0.1,0.2-0.4,0.1-0.6
			c-0.6-1.9-0.5-3.8,0.1-5.6c0.3-1,0.4-1,1.4-0.9c0.1,0,0.1,0,0.2,0c2,0.3,3.7,1.3,5.4,2.4c0.2,0.1,0.6,0.2,0.8,0.2
			c4.1-1,8.1-1,12.2,0c0.2,0.1,0.6,0,0.8-0.1c0.9-0.5,1.8-1,2.8-1.5c1.1-0.5,2.2-0.9,3.5-0.9c0.2,0,0.6,0.2,0.6,0.4
			c0.7,2,0.9,4,0.3,6c-0.1,0.2,0,0.5,0.1,0.7c0.6,1.1,1.4,2.1,1.8,3.2c1.1,3.5,0.7,6.9-0.8,10.2c-1.4,3-4,4.5-7.1,5.3
			c-1,0.3-2.1,0.4-3.2,0.6c1.5,1.5,1.7,3.4,1.7,5.4c0,2,0,4.1,0,6.1c0,0.6,0.1,1,0.4,1.2C44,47.6,51.8,37.6,51.8,25.9
			C51.8,11.6,40.2,0,25.9,0z"/>
	</g>
</g>
<g id="Capas">
</g>
</svg>
