<?xml version="1.0" encoding="utf-8"?>
<!-- Generator: Adobe Illustrator 24.0.2, SVG Export Plug-In . SVG Version: 6.00 Build 0)  -->
<svg version="1.1" xmlns="http://www.w3.org/2000/svg" xmlns:xlink="http://www.w3.org/1999/xlink" x="0px" y="0px"
	 viewBox="0 0 52.7 52.7" style="enable-background:new 0 0 52.7 52.7;" xml:space="preserve">
<style type="text/css">
	.st0{fill:#F2F2F2;}
	.st1{opacity:0.8;clip-path:url(#SVGID_2_);}
	.st2{opacity:0.71;}
	.st3{fill:#C9C9C9;}
	.st4{opacity:0.53;}
	.st5{opacity:0.85;}
	.st6{opacity:0.67;}
	.st7{opacity:0.44;}
	.st8{opacity:0.72;}
	.st9{opacity:0.56;}
	.st10{opacity:0.57;}
	.st11{opacity:0.51;}
	.st12{opacity:0.52;}
	.st13{opacity:0.47;}
	.st14{opacity:0.76;}
	.st15{opacity:0.82;}
	.st16{opacity:0.54;}
	.st17{opacity:0.94;}
	.st18{opacity:0.78;}
	.st19{opacity:0.62;}
	.st20{opacity:0.87;}
	.st21{opacity:0.45;}
	.st22{opacity:0.81;}
	.st23{opacity:0.64;}
	.st24{opacity:0.4;}
	.st25{opacity:0.66;}
	.st26{opacity:0.41;}
	.st27{opacity:0.77;}
	.st28{opacity:0.88;}
	.st29{opacity:0.93;}
	.st30{opacity:0.61;}
	.st31{opacity:0.84;}
	.st32{opacity:0.69;}
	.st33{opacity:0.74;}
	.st34{opacity:0.58;}
	.st35{opacity:0.6;}
	.st36{opacity:0.49;}
	.st37{opacity:0.99;}
	.st38{opacity:0.59;}
	.st39{opacity:0.65;}
	.st40{opacity:0.43;}
	.st41{opacity:0.75;}
	.st42{opacity:0.73;}
	.st43{opacity:0.92;}
	.st44{opacity:0.7;clip-path:url(#SVGID_4_);}
	.st45{opacity:0.7;}
	.st46{fill:none;}
	.st47{fill:#3B67D2;}
	.st48{fill:none;stroke:#3B67D2;stroke-miterlimit:10;}
	.st49{fill:#7899EC;}
	.st50{fill:#494949;}
	.st51{fill:#FF0000;}
	.st52{fill:#1549AF;}
	.st53{fill-rule:evenodd;clip-rule:evenodd;fill:#1549AF;}
	.st54{fill:none;stroke:#3B67D2;stroke-width:0.5;stroke-miterlimit:10;}
	.st55{fill:#FFFFFF;}
	.st56{fill:none;stroke:#3B67D2;stroke-width:3;stroke-miterlimit:10;}
	.st57{fill:none;stroke:#1549AF;stroke-miterlimit:10;}
	.st58{fill:#EAEAEA;}
	.st59{fill:none;stroke:#1549AF;stroke-width:2;stroke-miterlimit:10;}
	.st60{display:none;}
	.st61{display:inline;opacity:0.8;}
	.st62{display:inline;}
	.st63{display:inline;fill:#FFFFFF;}
</style>
<g id="Fondo">
	<g>
		<defs>
			<rect id="SVGID_3_" x="-414" y="180.4" width="1920" height="1080"/>
		</defs>
		<clipPath id="SVGID_2_">
			<use xlink:href="#SVGID_3_"  style="overflow:visible;"/>
		</clipPath>
		<g style="opacity:0.7;clip-path:url(#SVGID_2_);">
			<g>
				<g class="st27">
					<path class="st3" d="M14.1,21.2L14.1,21.2l0.1,0.3h0L14.1,21.2L14.1,21.2L14.1,21.2z"/>
					<path class="st3" d="M14,35h0.2v0.4h-0.1L14,35L14,35L14,35z"/>
					<path class="st3" d="M14,49.3c0,0,0-0.1,0-0.2c0-0.1,0-0.1,0-0.2c0,0,0.1-0.1,0.1-0.1c0.1,0,0.1,0,0.1,0.1c0,0,0,0.1,0,0.2
						c0,0.1,0,0.1,0,0.2c0,0-0.1,0.1-0.1,0.1C14.1,49.4,14,49.4,14,49.3z M14,49c0,0,0,0.1,0,0.1c0,0,0,0.1,0,0.1c0,0,0,0,0.1,0
						c0,0,0.1,0,0.1,0c0,0,0-0.1,0-0.1c0,0,0-0.1,0-0.1C14.2,49,14.1,49,14,49C14.1,49,14,49,14,49z"/>
				</g>
			</g>
		</g>
	</g>
</g>
<g id="Elementos">
	<g>
		<g>
			<path class="st52" d="M26.3,1.3c13.8,0,25.1,11.2,25.1,25s-11.2,25-25.1,25c-13.8,0-25-11.2-25-25S12.5,1.3,26.3,1.3 M26.3,0
				C11.8,0,0,11.8,0,26.3c0,14.5,11.8,26.3,26.3,26.3c14.5,0,26.3-11.8,26.3-26.3C52.7,11.8,40.8,0,26.3,0L26.3,0z"/>
		</g>
		<g>
			<path class="st53" d="M41.2,22.7c-1.7-6.9-7.6-11.7-14.9-11.8c-1,0-2,0.1-2.9,0.3C13.3,13.3,8.1,24.5,13,33.5
				c0.2,0.3,0.2,0.5,0.1,0.8c-0.7,2.3-1.4,4.7-2,7.1c-0.1,0.4-0.1,0.4,0.3,0.3c2.5-0.7,4.9-1.3,7.4-1.9c0.2-0.1,0.4-0.1,0.5,0
				c3.2,1.6,6.5,2.1,10,1.4C37.7,39.5,43.2,31,41.2,22.7z M28.5,38.7c-0.7,0.1-1.4,0.2-1.8,0.2c-2.7,0-4.9-0.6-6.9-1.8
				c-0.3-0.2-0.5-0.2-0.8-0.1c-1.4,0.3-2.7,0.7-4.1,1.1c-0.3,0.1-0.3,0-0.2-0.2c0.4-1.3,0.7-2.5,1.1-3.9c0.1-0.4,0.1-0.6-0.2-0.9
				c-2.8-4.5-2.6-10,0.4-14.2c3.2-4.3,7.6-6.1,12.9-4.9c5.2,1.1,8.5,4.4,9.7,9.6C40.3,30.5,35.6,37.5,28.5,38.7z"/>
			<path class="st53" d="M30.3,33.5c-0.5,0.1-1.1,0-1.6-0.2c-3.5-1-6.1-3.2-8.2-6.1c-0.8-1.1-1.5-2.2-1.8-3.6
				c-0.3-1.6,0.2-3,1.4-4.1c0.4-0.4,1.6-0.6,2-0.3c0.2,0.1,0.2,0.2,0.3,0.4c0.4,1.1,0.9,2.1,1.3,3.1c0.1,0.2,0.1,0.4-0.1,0.7
				c-0.2,0.5-0.6,0.9-0.9,1.3c-0.3,0.2-0.3,0.5-0.1,0.8c1.2,2.1,2.9,3.6,5.2,4.5c0.3,0.1,0.6,0.1,0.8-0.2c0.4-0.5,0.8-1,1.1-1.4
				c0.2-0.3,0.5-0.4,0.8-0.2c0.7,0.3,1.5,0.7,2.2,1c0.2,0.1,0.3,0.2,0.5,0.3c0.8,0.4,0.8,0.4,0.7,1.2c-0.1,1.6-1.3,2.4-2.7,2.8
				C30.9,33.5,30.6,33.5,30.3,33.5z"/>
		</g>
	</g>
</g>
<g id="Capas">
</g>
</svg>
