<svg xmlns="http://www.w3.org/2000/svg" xmlns:xlink="http://www.w3.org/1999/xlink" viewBox="0 0 35.35 59.53"><defs><style>.cls-1{fill:none;}.cls-2{clip-path:url(#clip-path);}.cls-3{opacity:0.7;}.cls-4{opacity:0.53;}.cls-5{fill:#c9c9c9;}.cls-6{opacity:0.6;}.cls-7{fill:#1549af;}</style><clipPath id="clip-path"><rect class="cls-1" x="-329.82" y="183.85" width="1920" height="1080"/></clipPath></defs><title>portfolio</title><g id="Fondo"><g class="cls-2"><g class="cls-3"><g class="cls-4"><path class="cls-5" d="M27.58,4.66a.36.36,0,0,1,0-.19.39.39,0,0,1,0-.2.22.22,0,0,1,.32,0,.39.39,0,0,1,.05.2.36.36,0,0,1-.05.19.22.22,0,0,1-.32,0Zm.07-.33a.26.26,0,0,0,0,.14.25.25,0,0,0,0,.13.1.1,0,0,0,.09.06.12.12,0,0,0,.1,0,.32.32,0,0,0,0-.14.28.28,0,0,0,0-.14.11.11,0,0,0-.1-.06A.1.1,0,0,0,27.65,4.33Z"/><path class="cls-5" d="M27.58,17.76a.36.36,0,0,1,0-.19.37.37,0,0,1,0-.2.22.22,0,0,1,.32,0,.37.37,0,0,1,.05.2.36.36,0,0,1-.05.19.22.22,0,0,1-.32,0Zm.07-.33a.26.26,0,0,0,0,.14.25.25,0,0,0,0,.13.1.1,0,0,0,.09.06.11.11,0,0,0,.1-.06.25.25,0,0,0,0-.13.28.28,0,0,0,0-.14.11.11,0,0,0-.1-.06A.1.1,0,0,0,27.65,17.43Z"/><path class="cls-5" d="M27.58,30.86a.37.37,0,0,1,0-.2.36.36,0,0,1,0-.19.22.22,0,0,1,.32,0,.36.36,0,0,1,.05.19.37.37,0,0,1-.05.2.22.22,0,0,1-.32,0Zm.07-.33a.25.25,0,0,0,0,.13.26.26,0,0,0,0,.14.1.1,0,0,0,.09.06.11.11,0,0,0,.1-.06.28.28,0,0,0,0-.14.25.25,0,0,0,0-.13.11.11,0,0,0-.1-.06A.1.1,0,0,0,27.65,30.53Z"/><path class="cls-5" d="M27.65,43.51h.18V44h-.08v-.43h-.1Z"/><path class="cls-5" d="M27.58,57.06a.39.39,0,0,1,0-.2.36.36,0,0,1,0-.19.22.22,0,0,1,.32,0,.36.36,0,0,1,.05.19.39.39,0,0,1-.05.2.22.22,0,0,1-.32,0Zm.07-.34a.32.32,0,0,0,0,.14.26.26,0,0,0,0,.14.1.1,0,0,0,.09.06.11.11,0,0,0,.1-.06.28.28,0,0,0,0-.14.32.32,0,0,0,0-.14.12.12,0,0,0-.1,0A.11.11,0,0,0,27.65,56.72Z"/></g><g class="cls-6"><path class="cls-5" d="M3.4,40.33h0v.12h0v-.1h0Z"/><path class="cls-5" d="M3.34,56.08H3.5v.44H3.43v-.37H3.34Z"/></g></g></g></g><g id="Elementos"><path class="cls-7" d="M30.23,59.53a5.12,5.12,0,0,0,5.12-5.11V5.12A5.12,5.12,0,0,0,30.23,0H5.12A5.12,5.12,0,0,0,0,5.12v49.3a5.11,5.11,0,0,0,5.12,5.11ZM1.86,50.7V5.12A3.26,3.26,0,0,1,5.12,1.86H30.23a3.26,3.26,0,0,1,3.26,3.26V50.7A3.26,3.26,0,0,1,30.23,54H5.12A3.26,3.26,0,0,1,1.86,50.7Z"/><circle class="cls-7" cx="17.67" cy="4.65" r="1.4"/></g></svg>