<svg xmlns="http://www.w3.org/2000/svg" viewBox="0 0 1056.75 299.5"><defs><style>.cls-1{fill:#7899ec;}.cls-2{fill:#494949;}.cls-3{fill:#3b67d2;}</style></defs><title>portfolio</title><g id="Elementos"><path class="cls-1" d="M18.55,5.52h5.66l-15.16,40H3.39Z"/><path class="cls-1" d="M46.15,5.52h5.66l-15.16,40H31Z"/><path class="cls-1" d="M58.44,8.2h8.28c8.7,0,14.42,4.55,14.42,14.85s-5.72,15.13-14,15.13H58.44Zm7.9,24.52c4.67,0,7.84-2.5,7.84-9.67S71,13.66,66.34,13.66H65.22V32.72Z"/><path class="cls-1" d="M85.33,26.76a11.65,11.65,0,0,1,11.87-12c7,0,10.75,4.76,10.75,11a19.9,19.9,0,0,1-.28,3H90.35V24.25h12.74L102,25.54c0-3.66-1.59-5.59-4.59-5.59-3.34,0-5.54,2.27-5.54,6.81,0,4.73,2.58,6.81,7,6.81A12.52,12.52,0,0,0,104.78,32L107,36.06a17.39,17.39,0,0,1-9,2.67C90.87,38.73,85.33,34.34,85.33,26.76Z"/><path class="cls-1" d="M112.84,35.24,115.71,31a17.44,17.44,0,0,0,9.21,2.71c2.51,0,3.62-.84,3.62-2,0-1.27-1.1-1.74-5.58-2.68-6.21-1.33-8.68-3.61-8.68-7.13,0-4.25,4-7.15,10.49-7.15a18.49,18.49,0,0,1,9.88,3.12l-3,4.07a14.58,14.58,0,0,0-7.46-2.18c-2.11,0-3.16.75-3.16,1.82,0,1.27,1.4,1.57,5.27,2.44,7,1.57,9,3.58,9,7.29,0,4.14-3.94,7.37-11.26,7.37A21.19,21.19,0,0,1,112.84,35.24Z"/><path class="cls-1" d="M150.8,20.66h-9.19v-5.3h16V38.18H150.8Zm-1.42-13a4.51,4.51,0,0,1,9,0c0,2.5-1.88,4.14-4.49,4.14S149.38,10.15,149.38,7.65Z"/><path class="cls-1" d="M168,42c0-1.86,1.22-3.39,3.55-4.57v-.18a4.37,4.37,0,0,1-2.3-3.88A5.67,5.67,0,0,1,172,29.12v-.18a7,7,0,0,1-3-5.86c0-5.48,4.61-8.28,9.78-8.28a11.89,11.89,0,0,1,3.74.56h9.28v5h-4.6a5.22,5.22,0,0,1,1,3c0,5.25-4.12,7.65-9.41,7.65a11.8,11.8,0,0,1-3.14-.46,1.86,1.86,0,0,0-1,1.68c0,1.22,1.2,1.71,3.88,1.71h4.22c6,0,9.28,1.67,9.28,5.78,0,4.75-5.3,8.22-13.62,8.22C172.38,47.89,168,46.13,168,42Zm17.51-1.21c0-1.45-1.41-1.75-4-1.75H178.6a14.08,14.08,0,0,1-3.47-.3c-1.16.72-1.63,1.41-1.63,2.23,0,1.72,2.24,2.59,5.79,2.59S185.49,42.4,185.49,40.83Zm-3.31-17.75a3.46,3.46,0,1,0-6.89,0c0,2.49,1.55,3.79,3.43,3.79S182.18,25.57,182.18,23.08Z"/><path class="cls-1" d="M196.51,15.36H202l.49,3h.18a11.07,11.07,0,0,1,7.89-3.6c5.16,0,7.43,3.53,7.43,9.29V38.18h-6.77V25c0-3-.88-4.39-3.35-4.39-1.8,0-3,.84-4.61,2.38V38.18h-6.78Z"/><path class="cls-1" d="M223.33,26.76a11.65,11.65,0,0,1,11.87-12c7,0,10.75,4.76,10.75,11a19.63,19.63,0,0,1-.29,3H228.35V24.25h12.74L240,25.54c0-3.66-1.59-5.59-4.59-5.59-3.35,0-5.54,2.27-5.54,6.81,0,4.73,2.58,6.81,7,6.81A12.56,12.56,0,0,0,242.78,32L245,36.06A17.39,17.39,0,0,1,236,38.73C228.86,38.73,223.33,34.34,223.33,26.76Z"/><path class="cls-1" d="M253.71,15.36h5.56l.53,5H260a10.61,10.61,0,0,1,9.26-5.55,9.27,9.27,0,0,1,4.38.93l-1.37,5.68a11.85,11.85,0,0,0-4-.67c-2.83,0-5.74,1.47-7.71,5.57V38.18h-6.77Z"/><path class="cls-1" d="M306.41,31.85c0-5.11,4.23-7.72,15-8.37-.23-2-1.77-3.29-4.83-3.29-2.21,0-4.39.85-7,2.14l-2.42-4.44a21.78,21.78,0,0,1,10.68-3.09c6.42,0,10.31,3.34,10.31,10.33V38.18h-5.53l-.49-2.57H322a14,14,0,0,1-8.09,3.12C309.3,38.73,306.41,35.69,306.41,31.85Zm15-.54V27.57c-6.71.34-8.51,1.79-8.51,3.74,0,1.47,1.24,2.18,3.15,2.18A8.73,8.73,0,0,0,321.42,31.31Z"/><path class="cls-1" d="M334.51,15.36H340l.49,3h.18a11.07,11.07,0,0,1,7.89-3.6c5.16,0,7.43,3.53,7.43,9.29V38.18h-6.77V25c0-3-.88-4.39-3.35-4.39-1.81,0-3,.84-4.62,2.38V38.18h-6.77Z"/><path class="cls-1" d="M361,26.78c0-7.47,4.79-12,9.75-12a7.55,7.55,0,0,1,5.76,2.46h.16l-.32-3.53V6h6.77V38.18h-5.52l-.48-2.35h-.17a9.51,9.51,0,0,1-6.32,2.9C364.76,38.73,361,34.23,361,26.78Zm15.35,4.29V21.86a5.39,5.39,0,0,0-3.82-1.51c-2.47,0-4.6,2-4.6,6.35s1.65,6.49,4.42,6.49A4.71,4.71,0,0,0,376.31,31.07Z"/><path class="cls-1" d="M418.82,8.2h19.93v5.69H425.6v7h11.23v5.69H425.6V38.18h-6.78Z"/><path class="cls-1" d="M446.9,15.36h5.57l.53,5h.16a10.6,10.6,0,0,1,9.25-5.55,9.31,9.31,0,0,1,4.39.93l-1.38,5.68a11.81,11.81,0,0,0-4-.67c-2.82,0-5.73,1.47-7.7,5.57V38.18H446.9Z"/><path class="cls-1" d="M471.36,26.78c0-7.6,5.61-12,11.64-12s11.63,4.38,11.63,12S489,38.73,483,38.73,471.36,34.35,471.36,26.78Zm16.34,0c0-4-1.59-6.51-4.7-6.51s-4.71,2.55-4.71,6.51,1.59,6.49,4.71,6.49S487.7,30.73,487.7,26.78Z"/><path class="cls-1" d="M500.11,15.36h5.52l.49,3h.18a11.07,11.07,0,0,1,7.89-3.6c5.15,0,7.43,3.53,7.43,9.29V38.18h-6.78V25c0-3-.87-4.39-3.34-4.39-1.81,0-3,.84-4.62,2.38V38.18h-6.77Z"/><path class="cls-1" d="M532.41,28.72V20.66h-5.75v-5l6.05-.26.88-7h5.59v7h9.62v5.3h-9.62v8c0,3.48,1.47,4.78,4.8,4.78a13.31,13.31,0,0,0,4.5-.81l1.23,4.9a25.08,25.08,0,0,1-7.46,1.23C535,38.73,532.41,34.71,532.41,28.72Z"/><path class="cls-1" d="M555.21,20.61h21.17v4.78H555.21Z"/><path class="cls-1" d="M582.12,26.76A11.65,11.65,0,0,1,594,14.8c7,0,10.74,4.76,10.74,11a19.9,19.9,0,0,1-.28,3H587.14V24.25h12.74l-1.07,1.29c0-3.66-1.59-5.59-4.59-5.59-3.34,0-5.54,2.27-5.54,6.81,0,4.73,2.58,6.81,7,6.81A12.59,12.59,0,0,0,601.58,32l2.24,4.07a17.39,17.39,0,0,1-9.05,2.67C587.66,38.73,582.12,34.34,582.12,26.76Z"/><path class="cls-1" d="M610.51,15.36H616l.48,3h.19a11.07,11.07,0,0,1,7.89-3.6c5.15,0,7.43,3.53,7.43,9.29V38.18h-6.78V25c0-3-.87-4.39-3.34-4.39-1.81,0-3,.84-4.62,2.38V38.18h-6.77Z"/><path class="cls-1" d="M637,26.78c0-7.47,4.8-12,9.76-12a7.53,7.53,0,0,1,5.75,2.46h.16l-.31-3.53V6h6.77V38.18h-5.52l-.49-2.35h-.17a9.47,9.47,0,0,1-6.32,2.9C640.75,38.73,637,34.23,637,26.78Zm15.36,4.29V21.86a5.4,5.4,0,0,0-3.82-1.51c-2.47,0-4.61,2-4.61,6.35s1.66,6.49,4.43,6.49A4.72,4.72,0,0,0,652.31,31.07Z"/><path class="cls-1" d="M692.15,26.78c0-7.47,4.8-12,9.76-12a7.53,7.53,0,0,1,5.75,2.46h.16l-.32-3.53V6h6.78V38.18h-5.52l-.49-2.35h-.17a9.47,9.47,0,0,1-6.32,2.9C696,38.73,692.15,34.23,692.15,26.78Zm15.35,4.29V21.86a5.36,5.36,0,0,0-3.81-1.51c-2.47,0-4.61,2-4.61,6.35s1.66,6.49,4.42,6.49A4.7,4.7,0,0,0,707.5,31.07Z"/><path class="cls-1" d="M720.12,26.76A11.65,11.65,0,0,1,732,14.8c7,0,10.74,4.76,10.74,11a19.9,19.9,0,0,1-.28,3H725.14V24.25h12.74l-1.07,1.29c0-3.66-1.59-5.59-4.59-5.59-3.34,0-5.54,2.27-5.54,6.81,0,4.73,2.58,6.81,7,6.81A12.59,12.59,0,0,0,739.58,32l2.24,4.07a17.39,17.39,0,0,1-9.05,2.67C725.66,38.73,720.12,34.34,720.12,26.76Z"/><path class="cls-1" d="M746.63,15.36h6.79L757,26.12c.74,2.28,1.37,4.62,2.05,7h.18c.69-2.4,1.29-4.74,2-7l3.6-10.76h6.47L763,38.18h-7.76Z"/><path class="cls-1" d="M775.32,26.76a11.65,11.65,0,0,1,11.87-12c7,0,10.75,4.76,10.75,11a19.9,19.9,0,0,1-.28,3H780.34V24.25h12.74L792,25.54c0-3.66-1.59-5.59-4.59-5.59-3.34,0-5.54,2.27-5.54,6.81,0,4.73,2.58,6.81,7,6.81A12.52,12.52,0,0,0,794.77,32L797,36.06a17.39,17.39,0,0,1-9,2.67C780.86,38.73,775.32,34.34,775.32,26.76Z"/><path class="cls-1" d="M809.85,29.25v-18h-7.18V6h14V29.53a3.39,3.39,0,0,0,3.72,3.74,10,10,0,0,0,3.56-.75l1.49,5a19.11,19.11,0,0,1-6.81,1.23C812.84,38.73,809.85,35,809.85,29.25Z"/><path class="cls-1" d="M830.15,26.78c0-7.6,5.62-12,11.64-12s11.64,4.38,11.64,12-5.62,11.95-11.64,11.95S830.15,34.35,830.15,26.78Zm16.35,0c0-4-1.59-6.51-4.71-6.51s-4.71,2.55-4.71,6.51,1.59,6.49,4.71,6.49S846.5,30.73,846.5,26.78Z"/><path class="cls-1" d="M858.9,15.36h5.52l.49,2.32h.17a10.52,10.52,0,0,1,6.8-2.88c5.7,0,9.15,4.57,9.15,11.61,0,7.83-4.79,12.32-9.9,12.32a8.14,8.14,0,0,1-5.61-2.46h-.16l.32,3.7v6.68H858.9Zm15.2,11.12c0-4.09-1.35-6.13-4.21-6.13a5.64,5.64,0,0,0-4.21,2.12v9.2a5.88,5.88,0,0,0,3.91,1.52C872.08,33.19,874.1,31.2,874.1,26.48Z"/><path class="cls-1" d="M885.72,26.76a11.65,11.65,0,0,1,11.87-12c7,0,10.75,4.76,10.75,11a18.44,18.44,0,0,1-.29,3H890.74V24.25h12.74l-1.07,1.29c0-3.66-1.59-5.59-4.59-5.59-3.35,0-5.54,2.27-5.54,6.81,0,4.73,2.58,6.81,7,6.81A12.53,12.53,0,0,0,905.17,32l2.25,4.07a17.39,17.39,0,0,1-9,2.67C891.25,38.73,885.72,34.34,885.72,26.76Z"/><path class="cls-1" d="M916.1,15.36h5.56l.54,5h.15a10.61,10.61,0,0,1,9.26-5.55,9.27,9.27,0,0,1,4.38.93l-1.37,5.68a11.85,11.85,0,0,0-4-.67c-2.83,0-5.74,1.47-7.71,5.57V38.18H916.1Z"/><path class="cls-2" d="M12.8,75.86H3.61v-5.3h16V93.38H12.8Zm-1.42-13a4.19,4.19,0,0,1,4.5-4.2,4.18,4.18,0,0,1,4.49,4.2c0,2.5-1.88,4.14-4.49,4.14S11.38,65.35,11.38,62.85Z"/><path class="cls-2" d="M31.38,70.82l6.25-.26H52v5.3H31.38Zm6-.85c0-5.23,3.05-9.37,10.21-9.37a21.58,21.58,0,0,1,6.9,1.23l-1.3,5a13.36,13.36,0,0,0-4.77-.89c-2.91,0-4.28,1.26-4.28,4V93.38H37.41Z"/><path class="cls-3" d="M91.11,80.59a27.39,27.39,0,0,1,9.74-21l3.74,3c-5.47,5.33-7.82,10.76-7.82,18s2.35,12.69,7.82,18l-3.74,3A27.39,27.39,0,0,1,91.11,80.59Z"/><path class="cls-2" d="M119.86,84.45v-18h-7.19v-5.3h14V84.73a3.39,3.39,0,0,0,3.72,3.74,9.8,9.8,0,0,0,3.56-.75l1.49,5a19.11,19.11,0,0,1-6.81,1.23C122.84,93.93,119.86,90.24,119.86,84.45Z"/><path class="cls-2" d="M140.16,82c0-7.6,5.62-12,11.64-12s11.64,4.38,11.64,12-5.62,12-11.64,12S140.16,89.55,140.16,82Zm16.35,0c0-4-1.59-6.51-4.71-6.51S147.09,78,147.09,82s1.59,6.49,4.71,6.49S156.51,85.93,156.51,82Z"/><path class="cls-2" d="M167.76,82c0-7.6,5.62-12,11.64-12S191,74.38,191,82s-5.62,12-11.64,12S167.76,89.55,167.76,82Zm16.35,0c0-4-1.59-6.51-4.71-6.51S174.69,78,174.69,82s1.59,6.49,4.71,6.49S184.11,85.93,184.11,82Z"/><path class="cls-2" d="M196.67,61.16h6.77V79.73h.18L212,70.56h7.39l-16,17.08v5.74h-6.77ZM206.17,83l3.89-4.21,10.08,14.55h-7.36Z"/><path class="cls-2" d="M233.6,75.86h-9.19v-5.3h16V93.38H233.6Zm-1.42-13a4.51,4.51,0,0,1,9,0c0,2.5-1.88,4.14-4.5,4.14S232.18,65.35,232.18,62.85Z"/><path class="cls-2" d="M251.71,70.56h5.52l.49,3h.18a11.07,11.07,0,0,1,7.89-3.6c5.16,0,7.43,3.53,7.43,9.29V93.38h-6.77V80.16c0-3-.88-4.39-3.35-4.39-1.8,0-3,.84-4.61,2.38V93.38h-6.78Z"/><path class="cls-2" d="M278.38,97.24c0-1.86,1.22-3.39,3.55-4.57v-.18a4.35,4.35,0,0,1-2.3-3.88,5.67,5.67,0,0,1,2.73-4.29v-.18a7,7,0,0,1-3-5.86c0-5.48,4.61-8.28,9.78-8.28a11.89,11.89,0,0,1,3.74.56h9.28v5h-4.6a5.29,5.29,0,0,1,1,3c0,5.25-4.12,7.65-9.41,7.65A11.8,11.8,0,0,1,286,85.7a1.86,1.86,0,0,0-1,1.68c0,1.22,1.2,1.71,3.88,1.71h4.22c6,0,9.27,1.67,9.27,5.78,0,4.75-5.29,8.22-13.61,8.22C282.78,103.09,278.38,101.33,278.38,97.24ZM295.89,96c0-1.45-1.41-1.75-4-1.75H289a14,14,0,0,1-3.47-.3c-1.16.72-1.63,1.41-1.63,2.23,0,1.72,2.23,2.59,5.79,2.59S295.89,97.6,295.89,96Zm-3.31-17.75a3.46,3.46,0,1,0-6.89,0c0,2.49,1.55,3.79,3.43,3.79S292.58,80.77,292.58,78.28Z"/><path class="cls-2" d="M308.42,63.4h19.93v5.69H315.21v7h11.22v5.69H315.21V93.38h-6.79Z"/><path class="cls-2" d="M333.36,82c0-7.6,5.62-12,11.64-12s11.64,4.38,11.64,12-5.62,12-11.64,12S333.36,89.55,333.36,82Zm16.34,0c0-4-1.59-6.51-4.7-6.51S340.29,78,340.29,82s1.59,6.49,4.71,6.49S349.7,85.93,349.7,82Z"/><path class="cls-2" d="M364.1,70.56h5.57l.53,5h.16A10.6,10.6,0,0,1,379.61,70a9.31,9.31,0,0,1,4.39.93l-1.37,5.68a11.89,11.89,0,0,0-4-.67c-2.83,0-5.74,1.47-7.71,5.57V93.38H364.1Z"/><path class="cls-2" d="M389.63,63.4h8.29c8.69,0,14.41,4.55,14.41,14.85s-5.72,15.13-14,15.13h-8.67Zm7.91,24.52c4.66,0,7.84-2.5,7.84-9.67s-3.18-9.39-7.84-9.39h-1.12V87.92Z"/><path class="cls-2" d="M416.52,82A11.65,11.65,0,0,1,428.4,70c7,0,10.74,4.76,10.74,11a19.9,19.9,0,0,1-.28,3H421.54V79.45h12.74l-1.06,1.29c0-3.66-1.6-5.59-4.6-5.59-3.34,0-5.53,2.27-5.53,6.81,0,4.73,2.57,6.81,7,6.81A12.56,12.56,0,0,0,436,87.19l2.24,4.07a17.36,17.36,0,0,1-9,2.67C422.06,93.93,416.52,89.54,416.52,82Z"/><path class="cls-2" d="M443,70.56h6.8l3.59,10.76c.74,2.28,1.37,4.62,2.05,7h.19c.68-2.4,1.28-4.74,2-7l3.59-10.76h6.47L459.4,93.38h-7.77Z"/><path class="cls-2" d="M471.72,82A11.65,11.65,0,0,1,483.6,70c7,0,10.74,4.76,10.74,11a19.9,19.9,0,0,1-.28,3H476.74V79.45h12.74l-1.06,1.29c0-3.66-1.6-5.59-4.6-5.59-3.34,0-5.53,2.27-5.53,6.81,0,4.73,2.57,6.81,7,6.81a12.56,12.56,0,0,0,5.88-1.58l2.24,4.07a17.36,17.36,0,0,1-9,2.67C477.26,93.93,471.72,89.54,471.72,82Z"/><path class="cls-2" d="M506.25,84.45v-18h-7.18v-5.3H513V84.73a3.39,3.39,0,0,0,3.72,3.74,9.8,9.8,0,0,0,3.56-.75l1.5,5A19.15,19.15,0,0,1,515,93.93C509.24,93.93,506.25,90.24,506.25,84.45Z"/><path class="cls-2" d="M526.56,82c0-7.6,5.61-12,11.63-12s11.64,4.38,11.64,12-5.61,12-11.64,12S526.56,89.55,526.56,82Zm16.34,0c0-4-1.59-6.51-4.71-6.51s-4.7,2.55-4.7,6.51,1.59,6.49,4.7,6.49S542.9,85.93,542.9,82Z"/><path class="cls-2" d="M555.31,70.56h5.52l.48,2.32h.18a10.5,10.5,0,0,1,6.8-2.88c5.69,0,9.14,4.57,9.14,11.61,0,7.83-4.78,12.32-9.9,12.32a8.17,8.17,0,0,1-5.61-2.46h-.16l.32,3.7v6.68h-6.77ZM570.5,81.68c0-4.09-1.34-6.13-4.21-6.13a5.64,5.64,0,0,0-4.21,2.12v9.2A5.88,5.88,0,0,0,566,88.39C568.49,88.39,570.5,86.4,570.5,81.68Z"/><path class="cls-2" d="M582.12,82A11.65,11.65,0,0,1,594,70c7,0,10.74,4.76,10.74,11a19.9,19.9,0,0,1-.28,3H587.14V79.45h12.74l-1.07,1.29c0-3.66-1.59-5.59-4.59-5.59-3.34,0-5.54,2.27-5.54,6.81,0,4.73,2.58,6.81,7,6.81a12.59,12.59,0,0,0,5.88-1.58l2.24,4.07a17.39,17.39,0,0,1-9.05,2.67C587.66,93.93,582.12,89.54,582.12,82Z"/><path class="cls-2" d="M612.5,70.56h5.57l.53,5h.16A10.59,10.59,0,0,1,628,70a9.24,9.24,0,0,1,4.38.93L631,76.61a11.85,11.85,0,0,0-4-.67c-2.83,0-5.73,1.47-7.71,5.57V93.38H612.5Z"/><path class="cls-3" d="M643.1,80.59a27.39,27.39,0,0,1,9.74-21l3.74,3c-5.47,5.33-7.82,10.76-7.82,18s2.35,12.69,7.82,18l-3.74,3A27.39,27.39,0,0,1,643.1,80.59Z"/><path class="cls-3" d="M695.8,98.62c5.47-5.34,7.82-10.77,7.82-18s-2.35-12.69-7.82-18l3.74-3a27.53,27.53,0,0,1,0,42Z"/><path class="cls-3" d="M748.4,70.46h21.18v4.77H748.4Zm0,10.7h21.18v4.78H748.4Z"/><path class="cls-3" d="M776,70.46h21.18v4.77H776Zm0,10.7h21.18v4.78H776Z"/><path class="cls-3" d="M803.6,70.46h21.18v4.77H803.6Zm0,10.7h21.18v4.78H803.6Z"/><path class="cls-2" d="M863.6,83.92V75.86h-5.75v-5l6.06-.26.87-7h5.6v7H880v5.3h-9.62v8c0,3.48,1.46,4.78,4.79,4.78a13.33,13.33,0,0,0,4.51-.81l1.23,4.9a25.14,25.14,0,0,1-7.46,1.23C866.19,93.93,863.6,89.91,863.6,83.92Z"/><path class="cls-2" d="M888.5,70.56h5.56l.54,5h.15A10.61,10.61,0,0,1,904,70a9.24,9.24,0,0,1,4.38.93L907,76.61a11.85,11.85,0,0,0-4-.67c-2.83,0-5.74,1.47-7.71,5.57V93.38H888.5Z"/><path class="cls-2" d="M913.63,84.65V70.56h6.78V83.78c0,3,.8,4.38,3.32,4.38,1.68,0,2.87-.6,4.43-2.6v-15h6.77V93.38H929.4l-.49-3.28h-.18a9.85,9.85,0,0,1-7.7,3.83C915.84,93.93,913.63,90.41,913.63,84.65Z"/><path class="cls-2" d="M940.92,82a11.65,11.65,0,0,1,11.87-12c7,0,10.75,4.76,10.75,11a19.63,19.63,0,0,1-.29,3H945.94V79.45h12.73l-1.06,1.29c0-3.66-1.59-5.59-4.59-5.59-3.35,0-5.54,2.27-5.54,6.81,0,4.73,2.58,6.81,7,6.81a12.56,12.56,0,0,0,5.88-1.58l2.25,4.07a17.39,17.39,0,0,1-9,2.67C946.45,93.93,940.92,89.54,940.92,82Z"/><path class="cls-3" d="M971.8,98.62c5.47-5.34,7.82-10.77,7.82-18s-2.35-12.69-7.82-18l3.74-3a27.55,27.55,0,0,1,0,42Z"/><path class="cls-3" d="M1031.89,93.82c0-3.26.46-4.93.46-7.85,0-1.63-1.34-3.31-6.31-3.39v-4c5-.08,6.31-1.76,6.31-3.39,0-2.87-.46-4.64-.46-7.85,0-5,2.66-6.55,8.57-6.55H1044V64.4h-1.89c-3.83,0-4.68.66-4.68,3.22s.21,4.78.21,7.5c0,3.49-1.31,4.83-4.61,5.38v.18c3.3.55,4.61,1.89,4.61,5.38,0,2.8-.21,5-.21,7.5s.85,3.22,4.68,3.22H1044v3.59h-3.55C1034.55,100.37,1031.89,98.79,1031.89,93.82Z"/><path class="cls-2" d="M39.32,116.36h6.77v7.86l-.4,4.39h.17a10.33,10.33,0,0,1,7.57-3.4c5.12,0,7.39,3.52,7.39,9.28v14.09H54.05V135.36c0-3-.87-4.39-3.35-4.39-1.8,0-3,.84-4.61,2.38v15.23H39.32Z"/><path class="cls-2" d="M76.4,131.06H67.21v-5.3h16v22.82H76.4Zm-1.42-13a4.51,4.51,0,0,1,9,0c0,2.5-1.88,4.14-4.49,4.14S75,120.55,75,118.05Z"/><path class="cls-2" d="M96.51,125.76h5.56l.54,5h.16a10.6,10.6,0,0,1,9.25-5.54,9.25,9.25,0,0,1,4.38.92L115,131.81a12.1,12.1,0,0,0-4-.66c-2.83,0-5.74,1.46-7.71,5.56v11.87H96.51Z"/><path class="cls-2" d="M121.33,137.16a11.64,11.64,0,0,1,11.87-12c7,0,10.75,4.75,10.75,11a19.9,19.9,0,0,1-.28,3H126.35v-4.54h12.74L138,135.94c0-3.66-1.59-5.59-4.59-5.59-3.34,0-5.54,2.27-5.54,6.81,0,4.73,2.58,6.81,7,6.81a12.52,12.52,0,0,0,5.87-1.58l2.25,4.07a17.39,17.39,0,0,1-9.05,2.67C126.87,149.13,121.33,144.74,121.33,137.16Z"/><path class="cls-2" d="M154.85,143.73a5.35,5.35,0,1,1,5.35,5.4A5.24,5.24,0,0,1,154.85,143.73Z"/><path class="cls-2" d="M175.6,125.76h5.1l.49,2.81h.15a5.18,5.18,0,0,1,4.95-3.36c2,0,3.42,1.28,4,3.73a5.35,5.35,0,0,1,5.05-3.73c3.26,0,5.1,2.8,5.1,7.36v16H194V133.05c0-1.42-.34-2.09-1.23-2.09s-1.46.72-2.09,2.22v15.4h-5.29V133.05c0-1.42-.41-2.09-1.31-2.09s-1.41.72-2,2.22v15.4H175.6Z"/><path class="cls-2" d="M204.13,137.16a11.64,11.64,0,0,1,11.87-12c7,0,10.75,4.75,10.75,11a18.44,18.44,0,0,1-.29,3H209.15v-4.54h12.74l-1.07,1.29c0-3.66-1.59-5.59-4.59-5.59-3.35,0-5.54,2.27-5.54,6.81,0,4.73,2.58,6.81,7,6.81a12.56,12.56,0,0,0,5.88-1.58l2.25,4.07a17.39,17.39,0,0,1-9.05,2.67C209.66,149.13,204.13,144.74,204.13,137.16Z"/><path class="cls-3" d="M237.5,135.79a27.4,27.4,0,0,1,9.75-21l3.74,3c-5.47,5.33-7.82,10.76-7.82,18s2.35,12.69,7.82,18l-3.74,3A27.4,27.4,0,0,1,237.5,135.79Z"/><path class="cls-3" d="M290.21,153.82c5.47-5.34,7.82-10.76,7.82-18s-2.35-12.69-7.82-18l3.74-3a27.55,27.55,0,0,1,0,42Z"/><path class="cls-2" d="M320.38,154.63c4.08-1.45,6-3.77,6-6.69l-.23-5.5,2.78,4.63a5,5,0,0,1-8-3.65c0-2.85,2.3-4.73,5.17-4.73,3.74,0,5.7,3,5.7,7.89,0,5.84-3.33,10-9.69,12Zm.06-25.78a5.36,5.36,0,1,1,5.36,5.41A5.24,5.24,0,0,1,320.44,128.85Z"/><path class="cls-2" d="M38.38,207.64c0-1.86,1.22-3.39,3.55-4.57v-.18a4.37,4.37,0,0,1-2.3-3.88,5.66,5.66,0,0,1,2.74-4.29v-.18a7,7,0,0,1-3-5.86c0-5.48,4.61-8.28,9.78-8.28a11.91,11.91,0,0,1,3.75.56h9.28v5H57.54a5.22,5.22,0,0,1,1,3c0,5.25-4.11,7.65-9.41,7.65A11.8,11.8,0,0,1,46,196.1a1.86,1.86,0,0,0-1,1.68c0,1.22,1.21,1.71,3.88,1.71h4.22c6,0,9.28,1.67,9.28,5.78,0,4.75-5.3,8.22-13.62,8.22C42.79,213.49,38.38,211.73,38.38,207.64Zm17.51-1.21c0-1.45-1.4-1.75-4-1.75H49a14.08,14.08,0,0,1-3.47-.3c-1.15.72-1.62,1.41-1.62,2.23,0,1.72,2.23,2.59,5.78,2.59S55.89,208,55.89,206.43Zm-3.31-17.75a3.45,3.45,0,1,0-6.88,0c0,2.49,1.55,3.79,3.42,3.79S52.58,191.17,52.58,188.68Z"/><path class="cls-2" d="M66.13,192.36A11.65,11.65,0,0,1,78,180.4c7,0,10.75,4.76,10.75,11a19.9,19.9,0,0,1-.28,3H71.15v-4.54H83.89l-1.07,1.29c0-3.66-1.59-5.59-4.59-5.59-3.34,0-5.54,2.27-5.54,6.81,0,4.73,2.58,6.81,7,6.81a12.59,12.59,0,0,0,5.88-1.58l2.24,4.07a17.39,17.39,0,0,1-9,2.67C71.67,204.33,66.13,199.94,66.13,192.36Z"/><path class="cls-2" d="M99.22,194.32v-8.06H93.46v-5l6.06-.26.87-7H106v7h9.62v5.3H106v8c0,3.48,1.47,4.78,4.79,4.78a13.33,13.33,0,0,0,4.51-.81l1.23,4.9a25.14,25.14,0,0,1-7.46,1.23C101.8,204.33,99.22,200.31,99.22,194.32Z"/><path class="cls-2" d="M122,173.8h10.66c6.35,0,11.58,2.21,11.58,9.34,0,6.89-5.23,9.86-11.58,9.86h-3.86v10.78H122Zm10.11,13.81c3.56,0,5.48-1.53,5.48-4.47s-1.92-3.95-5.48-3.95h-3.31v8.42Zm4-.75,9.57,16.92h-7.59l-6.67-12.57Z"/><path class="cls-2" d="M148.93,192.36a11.65,11.65,0,0,1,11.87-12c7,0,10.75,4.76,10.75,11a18.44,18.44,0,0,1-.29,3H154v-4.54h12.74l-1.07,1.29c0-3.66-1.59-5.59-4.59-5.59-3.35,0-5.54,2.27-5.54,6.81,0,4.73,2.58,6.81,7,6.81a12.53,12.53,0,0,0,5.88-1.58l2.25,4.07a17.39,17.39,0,0,1-9,2.67C154.46,204.33,148.93,199.94,148.93,192.36Z"/><path class="cls-2" d="M176.43,200.84l2.88-4.23a17.44,17.44,0,0,0,9.21,2.71c2.51,0,3.62-.84,3.62-2,0-1.27-1.1-1.74-5.58-2.68-6.21-1.33-8.68-3.61-8.68-7.13,0-4.25,4-7.15,10.49-7.15a18.49,18.49,0,0,1,9.88,3.12l-3,4.07a14.58,14.58,0,0,0-7.46-2.18c-2.11,0-3.16.75-3.16,1.82,0,1.27,1.4,1.57,5.27,2.44,7,1.57,9,3.58,9,7.29,0,4.14-3.94,7.37-11.26,7.37A21.25,21.25,0,0,1,176.43,200.84Z"/><path class="cls-2" d="M204.44,195.05V181h6.78v13.22c0,3,.8,4.38,3.32,4.38,1.68,0,2.87-.6,4.43-2.6V181h6.77v22.82h-5.53l-.49-3.28h-.18a9.85,9.85,0,0,1-7.7,3.83C206.65,204.33,204.44,200.81,204.44,195.05Z"/><path class="cls-2" d="M238.66,194.85v-18h-7.19v-5.3h14v23.57a3.39,3.39,0,0,0,3.72,3.74,9.75,9.75,0,0,0,3.55-.75l1.5,5a19.11,19.11,0,0,1-6.81,1.23C241.64,204.33,238.66,200.64,238.66,194.85Z"/><path class="cls-2" d="M264.81,194.32v-8.06h-5.75v-5l6.06-.26.87-7h5.6v7h9.62v5.3h-9.62v8c0,3.48,1.46,4.78,4.79,4.78a13.37,13.37,0,0,0,4.51-.81l1.22,4.9a25,25,0,0,1-7.45,1.23C267.39,204.33,264.81,200.31,264.81,194.32Z"/><path class="cls-2" d="M286.83,200.84l2.88-4.23a17.41,17.41,0,0,0,9.21,2.71c2.51,0,3.62-.84,3.62-2,0-1.27-1.11-1.74-5.59-2.68-6.2-1.33-8.67-3.61-8.67-7.13,0-4.25,4-7.15,10.49-7.15a18.52,18.52,0,0,1,9.88,3.12l-3,4.07a14.58,14.58,0,0,0-7.46-2.18c-2.12,0-3.16.75-3.16,1.82,0,1.27,1.4,1.57,5.27,2.44,7,1.57,9,3.58,9,7.29,0,4.14-3.94,7.37-11.27,7.37A21.22,21.22,0,0,1,286.83,200.84Z"/><path class="cls-3" d="M320.3,191A27.42,27.42,0,0,1,330,170l3.75,3c-5.47,5.33-7.82,10.76-7.82,18s2.35,12.69,7.82,18L330,212A27.42,27.42,0,0,1,320.3,191Z"/><path class="cls-3" d="M373,209c5.46-5.34,7.82-10.77,7.82-18s-2.36-12.69-7.82-18l3.74-3a27.55,27.55,0,0,1,0,42Z"/><path class="cls-2" d="M403.18,209.83c4.08-1.45,6-3.77,6-6.69l-.23-5.5,2.78,4.63a5,5,0,0,1-8-3.65c0-2.85,2.29-4.73,5.17-4.73,3.74,0,5.7,3,5.7,7.88,0,5.85-3.34,10.06-9.69,12Zm.06-25.78a5.36,5.36,0,1,1,5.36,5.41A5.24,5.24,0,0,1,403.24,184.05Z"/><path class="cls-2" d="M4.82,262.38H6.7c3.8,0,4.66-.66,4.66-3.22s-.18-4.7-.18-7.5c0-3.49,1.3-4.83,4.61-5.38v-.18c-3.31-.55-4.61-1.89-4.61-5.38,0-2.72.18-5.07.18-7.5S10.5,230,6.7,230H4.82v-3.59H8.36c5.93,0,8.56,1.58,8.56,6.55,0,3.21-.48,5-.48,7.85,0,1.63,1.34,3.31,6.34,3.39v4c-5,.08-6.34,1.76-6.34,3.39,0,2.92.48,4.59.48,7.85,0,5-2.63,6.55-8.56,6.55H4.82Z"/></g></svg>